<svg width="308" height="73" viewBox="0 0 308 73" fill="none" xmlns="http://www.w3.org/2000/svg">
<rect width="308" height="73" rx="36.5" fill="#E74242"/>
<path d="M77.0482 36.7891H72.8588V44H70.6117V27.3691H76.6293C78.4574 27.3691 79.8497 27.7712 80.806 28.5752C81.7624 29.3792 82.2406 30.5557 82.2406 32.1045C82.2406 33.8311 81.3689 35.0752 79.6254 35.8369C81.3435 36.3955 82.2025 37.7031 82.2025 39.7598V41.3213C82.2025 42.4554 82.4564 43.2552 82.9642 43.7207V44H80.641C80.1755 43.5853 79.9428 42.6882 79.9428 41.3086V39.7852C79.9428 38.8796 79.6804 38.1559 79.1556 37.6143C78.6309 37.0641 77.9284 36.7891 77.0482 36.7891ZM72.8588 29.1338V35.0244H76.4008C77.6703 35.0244 78.5844 34.7874 79.143 34.3135C79.71 33.8311 79.9935 33.0863 79.9935 32.0791C79.9935 30.1156 78.8721 29.1338 76.6293 29.1338H72.8588ZM93.2855 36.3193C93.2855 35.3883 93.0443 34.6393 92.5619 34.0723C92.0795 33.4967 91.3855 33.209 90.4799 33.209C89.7351 33.209 89.0918 33.5221 88.5502 34.1484C88.017 34.7747 87.6869 35.5745 87.5599 36.5479L87.5853 36.6113H93.2855V36.3193ZM90.8226 44.2666C89.1045 44.2666 87.7334 43.6995 86.7094 42.5654C85.6937 41.4313 85.1859 39.9375 85.1859 38.084V37.5762C85.1859 35.8411 85.7022 34.3854 86.7347 33.209C87.7758 32.0241 89.0241 31.4316 90.4799 31.4316C92.1218 31.4316 93.3744 31.9268 94.2377 32.917C95.1094 33.8988 95.5453 35.2487 95.5453 36.9668V38.376H87.5219L87.4838 38.4268C87.5092 39.6455 87.8139 40.6315 88.3978 41.3848C88.9903 42.1296 89.7986 42.502 90.8226 42.502C92.2614 42.502 93.4294 42.0957 94.3265 41.2832L95.2152 42.7432H95.2025C94.17 43.7588 92.71 44.2666 90.8226 44.2666ZM97.6019 38.8457V38.6045C97.6019 36.5817 98.0378 34.9694 98.9096 33.7676C99.7813 32.5658 100.983 31.9648 102.515 31.9648C104.055 31.9648 105.236 32.5785 106.057 33.8057L106.336 32.1934H108.126V44.6221C108.126 46.2132 107.665 47.432 106.743 48.2783C105.828 49.1247 104.5 49.5479 102.756 49.5479C102.155 49.5479 101.512 49.4632 100.827 49.2939C100.141 49.1331 99.5359 48.9131 99.0111 48.6338L99.5824 46.8818C99.9887 47.1104 100.475 47.2965 101.042 47.4404C101.618 47.5843 102.181 47.6562 102.731 47.6562C103.823 47.6562 104.618 47.4108 105.118 46.9199C105.625 46.429 105.879 45.6631 105.879 44.6221V43.2256C105.058 44.2751 103.907 44.7998 102.426 44.7998C100.953 44.7998 99.7813 44.2581 98.9096 43.1748C98.0378 42.083 97.6019 40.64 97.6019 38.8457ZM99.849 38.6045V38.8457C99.849 40.1237 100.116 41.1309 100.649 41.8672C101.19 42.6035 101.986 42.9717 103.036 42.9717C104.322 42.9717 105.274 42.3792 105.892 41.1943V35.5068C105.249 34.3643 104.305 33.793 103.061 33.793C102.011 33.793 101.212 34.2288 100.662 35.1006C100.12 35.9639 99.849 37.1318 99.849 38.6045ZM113.827 31.6348V44H111.579V31.6348H113.827ZM113.827 26.1758V28.4736H111.579V26.1758H113.827ZM121.888 42.4766C122.684 42.4766 123.31 42.32 123.767 42.0068C124.224 41.6852 124.453 41.262 124.453 40.7373C124.453 40.2126 124.258 39.7979 123.869 39.4932C123.479 39.18 122.773 38.9049 121.748 38.668C120.191 38.3294 119.044 37.8809 118.308 37.3223C117.58 36.7552 117.216 35.9766 117.216 34.9863C117.216 33.9961 117.648 33.154 118.511 32.46C119.374 31.7575 120.5 31.4062 121.888 31.4062C123.276 31.4062 124.398 31.7744 125.252 32.5107C126.116 33.2386 126.526 34.1442 126.484 35.2275L126.458 35.291H124.313C124.313 34.724 124.08 34.2331 123.615 33.8184C123.158 33.4036 122.552 33.1963 121.799 33.1963C121.054 33.1963 120.479 33.3656 120.073 33.7041C119.666 34.0342 119.463 34.4574 119.463 34.9736C119.463 35.4899 119.641 35.8835 119.996 36.1543C120.352 36.4251 121.05 36.6706 122.091 36.8906C123.682 37.2376 124.85 37.7031 125.595 38.2871C126.34 38.8626 126.712 39.6286 126.712 40.585C126.712 41.6852 126.268 42.5739 125.379 43.251C124.499 43.9281 123.314 44.2666 121.825 44.2666C120.335 44.2666 119.129 43.8773 118.206 43.0986C117.292 42.32 116.856 41.3763 116.899 40.2676L116.924 40.2041H119.07C119.112 40.9658 119.396 41.5413 119.92 41.9307C120.453 42.3115 121.118 42.502 121.913 42.502L121.888 42.4766ZM130.242 28.6768H132.514V31.6602H134.85V33.3359H132.514V40.8389C132.514 41.8883 132.95 42.4131 133.822 42.4131C134.092 42.4131 134.372 42.3623 134.66 42.2607L134.952 43.7969C134.545 44.11 133.974 44.2666 133.238 44.2666C132.29 44.2666 131.553 43.9831 131.029 43.416C130.504 42.849 130.242 41.9899 130.242 40.8389V33.3359H128.287V31.6602H130.242V28.6768ZM145.209 36.3193C145.209 35.3883 144.968 34.6393 144.486 34.0723C144.003 33.4967 143.309 33.209 142.404 33.209C141.659 33.209 141.016 33.5221 140.474 34.1484C139.941 34.7747 139.611 35.5745 139.484 36.5479L139.509 36.6113H145.209V36.3193ZM142.746 44.2666C141.028 44.2666 139.657 43.6995 138.633 42.5654C137.618 41.4313 137.11 39.9375 137.11 38.084V37.5762C137.11 35.8411 137.626 34.3854 138.659 33.209C139.7 32.0241 140.948 31.4316 142.404 31.4316C144.046 31.4316 145.298 31.9268 146.162 32.917C147.033 33.8988 147.469 35.2487 147.469 36.9668V38.376H139.446L139.408 38.4268C139.433 39.6455 139.738 40.6315 140.322 41.3848C140.914 42.1296 141.722 42.502 142.746 42.502C144.185 42.502 145.353 42.0957 146.25 41.2832L147.139 42.7432H147.126C146.094 43.7588 144.634 44.2666 142.746 44.2666ZM152.268 44.0127H150.021V31.6475H152.027L152.243 33.4502C152.996 32.0876 154.02 31.4062 155.315 31.4062C155.62 31.4062 155.907 31.4486 156.178 31.5332L155.873 33.6406L154.718 33.5645C153.559 33.5645 152.742 34.1019 152.268 35.1768V44.0127ZM167.439 27.3691V44H165.179V27.3691H167.439ZM171.273 31.6348H173.279L173.444 33.4756C174.299 32.096 175.522 31.4062 177.113 31.4062C178.467 31.4062 179.504 31.804 180.223 32.5996C180.942 33.3867 181.302 34.5843 181.302 36.1924V44H179.055V36.2432C179.055 35.1683 178.843 34.3981 178.42 33.9326C177.997 33.4671 177.337 33.2344 176.44 33.2344C175.797 33.2344 175.225 33.3867 174.726 33.6914C174.227 33.9961 173.825 34.4277 173.52 34.9863V44H171.273V31.6348ZM185.288 28.6768H187.561V31.6602H189.897V33.3359H187.561V40.8389C187.561 41.8883 187.997 42.4131 188.869 42.4131C189.139 42.4131 189.419 42.3623 189.706 42.2607L189.998 43.7969C189.592 44.11 189.021 44.2666 188.285 44.2666C187.337 44.2666 186.6 43.9831 186.076 43.416C185.551 42.849 185.288 41.9899 185.288 40.8389V33.3359H183.333V31.6602H185.288V28.6768ZM200.256 36.3193C200.256 35.3883 200.015 34.6393 199.533 34.0723C199.05 33.4967 198.356 33.209 197.451 33.209C196.706 33.209 196.063 33.5221 195.521 34.1484C194.988 34.7747 194.658 35.5745 194.531 36.5479L194.556 36.6113H200.256V36.3193ZM197.793 44.2666C196.075 44.2666 194.704 43.6995 193.68 42.5654C192.664 41.4313 192.157 39.9375 192.157 38.084V37.5762C192.157 35.8411 192.673 34.3854 193.705 33.209C194.746 32.0241 195.995 31.4316 197.451 31.4316C199.092 31.4316 200.345 31.9268 201.208 32.917C202.08 33.8988 202.516 35.2487 202.516 36.9668V38.376H194.493L194.454 38.4268C194.48 39.6455 194.785 40.6315 195.369 41.3848C195.961 42.1296 196.769 42.502 197.793 42.502C199.232 42.502 200.4 42.0957 201.297 41.2832L202.186 42.7432H202.173C201.141 43.7588 199.681 44.2666 197.793 44.2666ZM207.315 44.0127H205.068V31.6475H207.074L207.289 33.4502C208.043 32.0876 209.067 31.4062 210.362 31.4062C210.666 31.4062 210.954 31.4486 211.225 31.5332L210.92 33.6406L209.765 33.5645C208.606 33.5645 207.789 34.1019 207.315 35.1768V44.0127ZM220.67 36.3193C220.67 35.3883 220.429 34.6393 219.947 34.0723C219.464 33.4967 218.77 33.209 217.865 33.209C217.12 33.209 216.477 33.5221 215.935 34.1484C215.402 34.7747 215.072 35.5745 214.945 36.5479L214.97 36.6113H220.67V36.3193ZM218.207 44.2666C216.489 44.2666 215.118 43.6995 214.094 42.5654C213.078 41.4313 212.571 39.9375 212.571 38.084V37.5762C212.571 35.8411 213.087 34.3854 214.12 33.209C215.161 32.0241 216.409 31.4316 217.865 31.4316C219.507 31.4316 220.759 31.9268 221.622 32.917C222.494 33.8988 222.93 35.2487 222.93 36.9668V38.376H214.907L214.869 38.4268C214.894 39.6455 215.199 40.6315 215.783 41.3848C216.375 42.1296 217.183 42.502 218.207 42.502C219.646 42.502 220.814 42.0957 221.711 41.2832L222.6 42.7432H222.587C221.555 43.7588 220.095 44.2666 218.207 44.2666ZM230.078 42.4766C230.873 42.4766 231.499 42.32 231.956 42.0068C232.413 41.6852 232.642 41.262 232.642 40.7373C232.642 40.2126 232.447 39.7979 232.058 39.4932C231.669 39.18 230.962 38.9049 229.938 38.668C228.381 38.3294 227.234 37.8809 226.497 37.3223C225.77 36.7552 225.406 35.9766 225.406 34.9863C225.406 33.9961 225.837 33.154 226.701 32.46C227.564 31.7575 228.689 31.4062 230.078 31.4062C231.466 31.4062 232.587 31.7744 233.442 32.5107C234.305 33.2386 234.716 34.1442 234.673 35.2275L234.648 35.291H232.502C232.502 34.724 232.27 34.2331 231.804 33.8184C231.347 33.4036 230.742 33.1963 229.989 33.1963C229.244 33.1963 228.668 33.3656 228.262 33.7041C227.856 34.0342 227.653 34.4574 227.653 34.9736C227.653 35.4899 227.83 35.8835 228.186 36.1543C228.541 36.4251 229.24 36.6706 230.281 36.8906C231.872 37.2376 233.04 37.7031 233.785 38.2871C234.529 38.8626 234.902 39.6286 234.902 40.585C234.902 41.6852 234.457 42.5739 233.569 43.251C232.689 43.9281 231.504 44.2666 230.014 44.2666C228.524 44.2666 227.318 43.8773 226.396 43.0986C225.482 42.32 225.046 41.3763 225.088 40.2676L225.114 40.2041H227.259C227.301 40.9658 227.585 41.5413 228.11 41.9307C228.643 42.3115 229.307 42.502 230.103 42.502L230.078 42.4766ZM238.431 28.6768H240.703V31.6602H243.039V33.3359H240.703V40.8389C240.703 41.8883 241.139 42.4131 242.011 42.4131C242.282 42.4131 242.561 42.3623 242.849 42.2607L243.141 43.7969C242.735 44.11 242.163 44.2666 241.427 44.2666C240.479 44.2666 239.743 43.9831 239.218 43.416C238.693 42.849 238.431 41.9899 238.431 40.8389V33.3359H236.476V31.6602H238.431V28.6768Z" fill="white"/>
</svg>
