<svg width="246" height="246" viewBox="0 0 246 246" fill="none" xmlns="http://www.w3.org/2000/svg">
<path fill-rule="evenodd" clip-rule="evenodd" d="M0 21V42H21H42V21V0H21H0V21ZM204 21V42H225H246V21V0H225H204V21ZM56 3V4H57H58V3V2H57H56V3ZM68 3V4H69H70V3V2H69H68V3ZM74 3V4H75H76V3V2H75H74V3ZM86 3V4H87H88V3V2H87H86V3ZM104 3V4H105H106V3V2H105H104V3ZM128 3V4H129H130V3V2H129H128V3ZM134 3V4H135H136V3V2H135H134V3ZM146 3V4H147H148V3V2H147H146V3ZM152 3V4H153H154V3V2H153H152V3ZM164 3V4H165H166V3V2H165H164V3ZM170 3V4H171H172V3V2H171H170V3ZM182 3V4H183H184V3V2H183H182V3ZM194 3V4H195H196V3V2H195H194V3ZM36 21V36H21H6V21V6H21H36V21ZM240 21V36H225H210V21V6H225H240V21ZM56 9V10H57H58V9V8H57H56V9ZM86 9V10H87H88V9V8H87H86V9ZM92 9V10H93H94V9V8H93H92V9ZM98 9V10H99H100V9V8H99H98V9ZM110 9V10H111H112V9V8H111H110V9ZM122 9V10H123H124V9V8H123H122V9ZM140 9V10H141H142V9V8H141H140V9ZM164 9V10H165H166V9V8H165H164V9ZM176 9V10H177H178V9V8H177H176V9ZM188 9V10H189H190V9V8H189H188V9ZM12 21V30H21H30V21V12H21H12V21ZM48 15V18H51H54V15V12H51H48V15ZM216 21V30H225H234V21V12H225H216V21ZM56 15V16H57H58V15V14H57H56V15ZM62 15V16H63H64V15V14H63H62V15ZM68 15V16H69H70V15V14H69H68V15ZM80 15V16H81H82V15V14H81H80V15ZM86 15V16H87H88V15V14H87H86V15ZM92 15V16H93H94V15V14H93H92V15ZM122 15V16H123H124V15V14H123H122V15ZM128 15V16H129H130V15V14H129H128V15ZM140 15V16H141H142V15V14H141H140V15ZM146 15V16H147H148V15V14H147H146V15ZM158 15V16H159H160V15V14H159H158V15ZM170 15V16H171H172V15V14H171H170V15ZM176 15V16H177H178V15V14H177H176V15ZM182 15V16H183H184V15V14H183H182V15ZM194 15V16H195H196V15V14H195H194V15ZM56 21V22H57H58V21V20H57H56V21ZM62 21V22H63H64V21V20H63H62V21ZM86 21V22H87H88V21V20H87H86V21ZM92 21V22H93H94V21V20H93H92V21ZM98 21V22H99H100V21V20H99H98V21ZM104 21V22H105H106V21V20H105H104V21ZM122 21V22H123H124V21V20H123H122V21ZM134 21V22H135H136V21V20H135H134V21ZM158 21V22H159H160V21V20H159H158V21ZM164 21V22H165H166V21V20H165H164V21ZM176 21V22H177H178V21V20H177H176V21ZM182 21V22H183H184V21V20H183H182V21ZM194 21V22H195H196V21V20H195H194V21ZM48 33V42H51H54V33V24H51H48V33ZM62 27V28H63H64V27V26H63H62V27ZM68 27V28H69H70V27V26H69H68V27ZM86 27V28H87H88V27V26H87H86V27ZM92 27V28H93H94V27V26H93H92V27ZM116 27V28H117H118V27V26H117H116V27ZM134 27V28H135H136V27V26H135H134V27ZM140 27V28H141H142V27V26H141H140V27ZM146 27V28H147H148V27V26H147H146V27ZM152 27V28H153H154V27V26H153H152V27ZM158 27V28H159H160V27V26H159H158V27ZM170 27V28H171H172V27V26H171H170V27ZM188 27V28H189H190V27V26H189H188V27ZM80 33V34H81H82V33V32H81H80V33ZM86 33V34H87H88V33V32H87H86V33ZM98 33V34H99H100V33V32H99H98V33ZM104 33V34H105H106V33V32H105H104V33ZM110 33V34H111H112V33V32H111H110V33ZM116 33V34H117H118V33V32H117H116V33ZM134 33V34H135H136V33V32H135H134V33ZM140 33V34H141H142V33V32H141H140V33ZM146 33V34H147H148V33V32H147H146V33ZM158 33V34H159H160V33V32H159H158V33ZM176 33V34H177H178V33V32H177H176V33ZM188 33V34H189H190V33V32H189H188V33ZM60 39V42H63H66V39V36H63H60V39ZM72 39V42H75H78V39V36H75H72V39ZM84 39V42H87H90V39V36H87H84V39ZM96 39V42H99H102V39V36H99H96V39ZM108 39V42H111H114V39V36H111H108V39ZM120 39V42H123H126V39V36H123H120V39ZM132 39V42H135H138V39V36H135H132V39ZM144 39V42H147H150V39V36H147H144V39ZM156 39V42H159H162V39V36H159H156V39ZM168 39V42H171H174V39V36H171H168V39ZM180 39V42H183H186V39V36H183H180V39ZM192 39V42H195H198V39V36H195H192V39ZM56 45V46H57H58V45V44H57H56V45ZM62 45V46H63H64V45V44H63H62V45ZM68 45V46H69H70V45V44H69H68V45ZM80 45V46H81H82V45V44H81H80V45ZM86 45V46H87H88V45V44H87H86V45ZM98 45V46H99H100V45V44H99H98V45ZM104 45V46H105H106V45V44H105H104V45ZM110 45V46H111H112V45V44H111H110V45ZM116 45V46H117H118V45V44H117H116V45ZM128 45V46H129H130V45V44H129H128V45ZM164 45V46H165H166V45V44H165H164V45ZM170 45V46H171H172V45V44H171H170V45ZM176 45V46H177H178V45V44H177H176V45ZM182 45V46H183H184V45V44H183H182V45ZM194 45V46H195H196V45V44H195H194V45ZM0 51V54H3H6V51V48H3H0V51ZM18 51V54H21H24V51V48H21H18V51ZM36 51V54H39H42V51V48H39H36V51ZM48 51V54H51H54V51V48H51H48V51ZM198 51V54H201H204V51V48H201H198V51ZM210 51V54H216H222V51V48H216H210V51ZM228 51V54H231H234V51V48H231H228V51ZM56 51V52H57H58V51V50H57H56V51ZM62 51V52H63H64V51V50H63H62V51ZM74 51V52H75H76V51V50H75H74V51ZM80 51V52H81H82V51V50H81H80V51ZM92 51V52H93H94V51V50H93H92V51ZM98 51V52H99H100V51V50H99H98V51ZM104 51V52H105H106V51V50H105H104V51ZM116 51V52H117H118V51V50H117H116V51ZM122 51V52H123H124V51V50H123H122V51ZM128 51V52H129H130V51V50H129H128V51ZM134 51V52H135H136V51V50H135H134V51ZM146 51V52H147H148V51V50H147H146V51ZM152 51V52H153H154V51V50H153H152V51ZM158 51V52H159H160V51V50H159H158V51ZM164 51V52H165H166V51V50H165H164V51ZM194 51V52H195H196V51V50H195H194V51ZM26 57V58H27H28V57V56H27H26V57ZM32 57V58H33H34V57V56H33H32V57ZM44 57V58H45H46V57V56H45H44V57ZM50 57V58H51H52V57V56H51H50V57ZM56 57V58H57H58V57V56H57H56V57ZM62 57V58H63H64V57V56H63H62V57ZM68 57V58H69H70V57V56H69H68V57ZM80 57V58H81H82V57V56H81H80V57ZM98 57V58H99H100V57V56H99H98V57ZM128 57V58H129H130V57V56H129H128V57ZM158 57V58H159H160V57V56H159H158V57ZM164 57V58H165H166V57V56H165H164V57ZM176 57V58H177H178V57V56H177H176V57ZM182 57V58H183H184V57V56H183H182V57ZM206 57V58H207H208V57V56H207H206V57ZM212 57V58H213H214V57V56H213H212V57ZM236 57V58H237H238V57V56H237H236V57ZM242 57V58H243H244V57V56H243H242V57ZM36 63V66H39H42V63V60H39H36V63ZM68 63V64H69H70V63V62H69H68V63ZM74 63V64H75H76V63V62H75H74V63ZM104 63V64H105H106V63V62H105H104V63ZM110 63V64H111H112V63V62H111H110V63ZM128 63V64H129H130V63V62H129H128V63ZM140 63V64H141H142V63V62H141H140V63ZM146 63V64H147H148V63V62H147H146V63ZM152 63V64H153H154V63V62H153H152V63ZM188 63V64H189H190V63V62H189H188V63ZM194 63V64H195H196V63V62H195H194V63ZM200 63V64H201H202V63V62H201H200V63ZM212 63V64H213H214V63V62H213H212V63ZM230 63V64H231H232V63V62H231H230V63ZM242 63V64H243H244V63V62H243H242V63ZM2 69V70H3H4V69V68H3H2V69ZM8 69V70H9H10V69V68H9H8V69ZM14 69V70H15H16V69V68H15H14V69ZM20 69V70H21H22V69V68H21H20V69ZM56 69V70H57H58V69V68H57H56V69ZM92 69V70H93H94V69V68H93H92V69ZM98 69V70H99H100V69V68H99H98V69ZM146 69V70H147H148V69V68H147H146V69ZM152 69V70H153H154V69V68H153H152V69ZM158 69V70H159H160V69V68H159H158V69ZM164 69V70H165H166V69V68H165H164V69ZM170 69V70H171H172V69V68H171H170V69ZM176 69V70H177H178V69V68H177H176V69ZM194 69V70H195H196V69V68H195H194V69ZM200 69V70H201H202V69V68H201H200V69ZM212 69V70H213H214V69V68H213H212V69ZM224 69V70H225H226V69V68H225H224V69ZM230 69V70H231H232V69V68H231H230V69ZM36 75V78H39H42V75V72H39H36V75ZM2 75V76H3H4V75V74H3H2V75ZM14 75V76H15H16V75V74H15H14V75ZM32 75V76H33H34V75V74H33H32V75ZM68 75V76H69H70V75V74H69H68V75ZM74 75V76H75H76V75V74H75H74V75ZM92 75V76H93H94V75V74H93H92V75ZM104 75V76H105H106V75V74H105H104V75ZM110 75V76H111H112V75V74H111H110V75ZM128 75V76H129H130V75V74H129H128V75ZM176 75V76H177H178V75V74H177H176V75ZM206 75V76H207H208V75V74H207H206V75ZM230 75V76H231H232V75V74H231H230V75ZM2 81V82H3H4V81V80H3H2V81ZM8 81V82H9H10V81V80H9H8V81ZM14 81V82H15H16V81V80H15H14V81ZM20 81V82H21H22V81V80H21H20V81ZM26 81V82H27H28V81V80H27H26V81ZM32 81V82H33H34V81V80H33H32V81ZM44 81V82H45H46V81V80H45H44V81ZM50 81V82H51H52V81V80H51H50V81ZM74 81V82H75H76V81V80H75H74V81ZM86 81V82H87H88V81V80H87H86V81ZM98 81V82H99H100V81V80H99H98V81ZM104 81V82H105H106V81V80H105H104V81ZM122 81V82H123H124V81V80H123H122V81ZM128 81V82H129H130V81V80H129H128V81ZM146 81V82H147H148V81V80H147H146V81ZM164 81V82H165H166V81V80H165H164V81ZM170 81V82H171H172V81V80H171H170V81ZM176 81V82H177H178V81V80H177H176V81ZM182 81V82H183H184V81V80H183H182V81ZM194 81V82H195H196V81V80H195H194V81ZM206 81V82H207H208V81V80H207H206V81ZM236 81V82H237H238V81V80H237H236V81ZM242 81V82H243H244V81V80H243H242V81ZM36 87V90H39H42V87V84H39H36V87ZM2 87V88H3H4V87V86H3H2V87ZM14 87V88H15H16V87V86H15H14V87ZM26 87V88H27H28V87V86H27H26V87ZM44 87V88H45H46V87V86H45H44V87ZM50 87V88H51H52V87V86H51H50V87ZM56 87V88H57H58V87V86H57H56V87ZM62 87V88H63H64V87V86H63H62V87ZM68 87V88H69H70V87V86H69H68V87ZM80 87V88H81H82V87V86H81H80V87ZM98 87V88H99H100V87V86H99H98V87ZM104 87V88H105H106V87V86H105H104V87ZM116 87V88H117H118V87V86H117H116V87ZM134 87V88H135H136V87V86H135H134V87ZM140 87V88H141H142V87V86H141H140V87ZM158 87V88H159H160V87V86H159H158V87ZM164 87V88H165H166V87V86H165H164V87ZM182 87V88H183H184V87V86H183H182V87ZM206 87V88H207H208V87V86H207H206V87ZM224 87V88H225H226V87V86H225H224V87ZM230 87V88H231H232V87V86H231H230V87ZM26 93V94H27H28V93V92H27H26V93ZM86 93V94H87H88V93V92H87H86V93ZM98 93V94H99H100V93V92H99H98V93ZM110 93V94H111H112V93V92H111H110V93ZM116 93V94H117H118V93V92H117H116V93ZM122 93V94H123H124V93V92H123H122V93ZM128 93V94H129H130V93V92H129H128V93ZM140 93V94H141H142V93V92H141H140V93ZM164 93V94H165H166V93V92H165H164V93ZM182 93V94H183H184V93V92H183H182V93ZM188 93V94H189H190V93V92H189H188V93ZM194 93V94H195H196V93V92H195H194V93ZM206 93V94H207H208V93V92H207H206V93ZM212 93V94H213H214V93V92H213H212V93ZM218 93V94H219H220V93V92H219H218V93ZM224 93V94H225H226V93V92H225H224V93ZM230 93V94H231H232V93V92H231H230V93ZM36 99V102H39H42V99V96H39H36V99ZM2 99V100H3H4V99V98H3H2V99ZM8 99V100H9H10V99V98H9H8V99ZM14 99V100H15H16V99V98H15H14V99ZM26 99V100H27H28V99V98H27H26V99ZM32 99V100H33H34V99V98H33H32V99ZM44 99V100H45H46V99V98H45H44V99ZM50 99V100H51H52V99V98H51H50V99ZM56 99V100H57H58V99V98H57H56V99ZM74 99V100H75H76V99V98H75H74V99ZM80 99V100H81H82V99V98H81H80V99ZM86 99V100H87H88V99V98H87H86V99ZM92 99V100H93H94V99V98H93H92V99ZM98 99V100H99H100V99V98H99H98V99ZM104 99V100H105H106V99V98H105H104V99ZM110 99V100H111H112V99V98H111H110V99ZM116 99V100H117H118V99V98H117H116V99ZM122 99V100H123H124V99V98H123H122V99ZM128 99V100H129H130V99V98H129H128V99ZM146 99V100H147H148V99V98H147H146V99ZM158 99V100H159H160V99V98H159H158V99ZM170 99V100H171H172V99V98H171H170V99ZM176 99V100H177H178V99V98H177H176V99ZM182 99V100H183H184V99V98H183H182V99ZM200 99V100H201H202V99V98H201H200V99ZM212 99V100H213H214V99V98H213H212V99ZM224 99V100H225H226V99V98H225H224V99ZM242 99V100H243H244V99V98H243H242V99ZM14 105V106H15H16V105V104H15H14V105ZM20 105V106H21H22V105V104H21H20V105ZM26 105V106H27H28V105V104H27H26V105ZM32 105V106H33H34V105V104H33H32V105ZM50 105V106H51H52V105V104H51H50V105ZM56 105V106H57H58V105V104H57H56V105ZM104 105V106H105H106V105V104H105H104V105ZM140 105V106H141H142V105V104H141H140V105ZM152 105V106H153H154V105V104H153H152V105ZM164 105V106H165H166V105V104H165H164V105ZM182 105V106H183H184V105V104H183H182V105ZM194 105V106H195H196V105V104H195H194V105ZM200 105V106H201H202V105V104H201H200V105ZM206 105V106H207H208V105V104H207H206V105ZM218 105V106H219H220V105V104H219H218V105ZM224 105V106H225H226V105V104H225H224V105ZM230 105V106H231H232V105V104H231H230V105ZM236 105V106H237H238V105V104H237H236V105ZM36 111V114H39H42V111V108H39H36V111ZM2 111V112H3H4V111V110H3H2V111ZM14 111V112H15H16V111V110H15H14V111ZM50 111V112H51H52V111V110H51H50V111ZM80 111V112H81H82V111V110H81H80V111ZM86 111V112H87H88V111V110H87H86V111ZM110 111V112H111H112V111V110H111H110V111ZM122 111V112H123H124V111V110H123H122V111ZM128 111V112H129H130V111V110H129H128V111ZM140 111V112H141H142V111V110H141H140V111ZM152 111V112H153H154V111V110H153H152V111ZM158 111V112H159H160V111V110H159H158V111ZM176 111V112H177H178V111V110H177H176V111ZM182 111V112H183H184V111V110H183H182V111ZM188 111V112H189H190V111V110H189H188V111ZM200 111V112H201H202V111V110H201H200V111ZM230 111V112H231H232V111V110H231H230V111ZM242 111V112H243H244V111V110H243H242V111ZM14 117V118H15H16V117V116H15H14V117ZM26 117V118H27H28V117V116H27H26V117ZM32 117V118H33H34V117V116H33H32V117ZM44 117V118H45H46V117V116H45H44V117ZM50 117V118H51H52V117V116H51H50V117ZM56 117V118H57H58V117V116H57H56V117ZM68 117V118H69H70V117V116H69H68V117ZM74 117V118H75H76V117V116H75H74V117ZM80 117V118H81H82V117V116H81H80V117ZM104 117V118H105H106V117V116H105H104V117ZM122 117V118H123H124V117V116H123H122V117ZM128 117V118H129H130V117V116H129H128V117ZM140 117V118H141H142V117V116H141H140V117ZM212 117V118H213H214V117V116H213H212V117ZM218 117V118H219H220V117V116H219H218V117ZM224 117V118H225H226V117V116H225H224V117ZM230 117V118H231H232V117V116H231H230V117ZM36 123V126H39H42V123V120H39H36V123ZM2 123V124H3H4V123V122H3H2V123ZM26 123V124H27H28V123V122H27H26V123ZM56 123V124H57H58V123V122H57H56V123ZM86 123V124H87H88V123V122H87H86V123ZM92 123V124H93H94V123V122H93H92V123ZM98 123V124H99H100V123V122H99H98V123ZM104 123V124H105H106V123V122H105H104V123ZM110 123V124H111H112V123V122H111H110V123ZM116 123V124H117H118V123V122H117H116V123ZM134 123V124H135H136V123V122H135H134V123ZM176 123V124H177H178V123V122H177H176V123ZM182 123V124H183H184V123V122H183H182V123ZM194 123V124H195H196V123V122H195H194V123ZM200 123V124H201H202V123V122H201H200V123ZM206 123V124H207H208V123V122H207H206V123ZM230 123V124H231H232V123V122H231H230V123ZM242 123V124H243H244V123V122H243H242V123ZM2 129V130H3H4V129V128H3H2V129ZM14 129V130H15H16V129V128H15H14V129ZM26 129V130H27H28V129V128H27H26V129ZM56 129V130H57H58V129V128H57H56V129ZM62 129V130H63H64V129V128H63H62V129ZM68 129V130H69H70V129V128H69H68V129ZM104 129V130H105H106V129V128H105H104V129ZM110 129V130H111H112V129V128H111H110V129ZM122 129V130H123H124V129V128H123H122V129ZM134 129V130H135H136V129V128H135H134V129ZM146 129V130H147H148V129V128H147H146V129ZM152 129V130H153H154V129V128H153H152V129ZM176 129V130H177H178V129V128H177H176V129ZM200 129V130H201H202V129V128H201H200V129ZM218 129V130H219H220V129V128H219H218V129ZM224 129V130H225H226V129V128H225H224V129ZM230 129V130H231H232V129V128H231H230V129ZM236 129V130H237H238V129V128H237H236V129ZM36 135V138H39H42V135V132H39H36V135ZM2 135V136H3H4V135V134H3H2V135ZM20 135V136H21H22V135V134H21H20V135ZM32 135V136H33H34V135V134H33H32V135ZM62 135V136H63H64V135V134H63H62V135ZM80 135V136H81H82V135V134H81H80V135ZM86 135V136H87H88V135V134H87H86V135ZM92 135V136H93H94V135V134H93H92V135ZM116 135V136H117H118V135V134H117H116V135ZM122 135V136H123H124V135V134H123H122V135ZM134 135V136H135H136V135V134H135H134V135ZM164 135V136H165H166V135V134H165H164V135ZM182 135V136H183H184V135V134H183H182V135ZM194 135V136H195H196V135V134H195H194V135ZM200 135V136H201H202V135V134H201H200V135ZM242 135V136H243H244V135V134H243H242V135ZM2 141V142H3H4V141V140H3H2V141ZM14 141V142H15H16V141V140H15H14V141ZM20 141V142H21H22V141V140H21H20V141ZM32 141V142H33H34V141V140H33H32V141ZM56 141V142H57H58V141V140H57H56V141ZM62 141V142H63H64V141V140H63H62V141ZM98 141V142H99H100V141V140H99H98V141ZM116 141V142H117H118V141V140H117H116V141ZM122 141V142H123H124V141V140H123H122V141ZM140 141V142H141H142V141V140H141H140V141ZM158 141V142H159H160V141V140H159H158V141ZM176 141V142H177H178V141V140H177H176V141ZM188 141V142H189H190V141V140H189H188V141ZM206 141V142H207H208V141V140H207H206V141ZM212 141V142H213H214V141V140H213H212V141ZM218 141V142H219H220V141V140H219H218V141ZM224 141V142H225H226V141V140H225H224V141ZM230 141V142H231H232V141V140H231H230V141ZM236 141V142H237H238V141V140H237H236V141ZM36 147V150H39H42V147V144H39H36V147ZM2 147V148H3H4V147V146H3H2V147ZM26 147V148H27H28V147V146H27H26V147ZM32 147V148H33H34V147V146H33H32V147ZM50 147V148H51H52V147V146H51H50V147ZM74 147V148H75H76V147V146H75H74V147ZM80 147V148H81H82V147V146H81H80V147ZM98 147V148H99H100V147V146H99H98V147ZM110 147V148H111H112V147V146H111H110V147ZM140 147V148H141H142V147V146H141H140V147ZM152 147V148H153H154V147V146H153H152V147ZM164 147V148H165H166V147V146H165H164V147ZM182 147V148H183H184V147V146H183H182V147ZM200 147V148H201H202V147V146H201H200V147ZM206 147V148H207H208V147V146H207H206V147ZM2 153V154H3H4V153V152H3H2V153ZM14 153V154H15H16V153V152H15H14V153ZM20 153V154H21H22V153V152H21H20V153ZM26 153V154H27H28V153V152H27H26V153ZM44 153V154H45H46V153V152H45H44V153ZM50 153V154H51H52V153V152H51H50V153ZM62 153V154H63H64V153V152H63H62V153ZM68 153V154H69H70V153V152H69H68V153ZM92 153V154H93H94V153V152H93H92V153ZM98 153V154H99H100V153V152H99H98V153ZM104 153V154H105H106V153V152H105H104V153ZM110 153V154H111H112V153V152H111H110V153ZM116 153V154H117H118V153V152H117H116V153ZM122 153V154H123H124V153V152H123H122V153ZM146 153V154H147H148V153V152H147H146V153ZM170 153V154H171H172V153V152H171H170V153ZM182 153V154H183H184V153V152H183H182V153ZM194 153V154H195H196V153V152H195H194V153ZM206 153V154H207H208V153V152H207H206V153ZM212 153V154H213H214V153V152H213H212V153ZM230 153V154H231H232V153V152H231H230V153ZM36 159V162H39H42V159V156H39H36V159ZM8 159V160H9H10V159V158H9H8V159ZM14 159V160H15H16V159V158H15H14V159ZM20 159V160H21H22V159V158H21H20V159ZM26 159V160H27H28V159V158H27H26V159ZM32 159V160H33H34V159V158H33H32V159ZM44 159V160H45H46V159V158H45H44V159ZM56 159V160H57H58V159V158H57H56V159ZM68 159V160H69H70V159V158H69H68V159ZM74 159V160H75H76V159V158H75H74V159ZM80 159V160H81H82V159V158H81H80V159ZM86 159V160H87H88V159V158H87H86V159ZM98 159V160H99H100V159V158H99H98V159ZM104 159V160H105H106V159V158H105H104V159ZM110 159V160H111H112V159V158H111H110V159ZM128 159V160H129H130V159V158H129H128V159ZM140 159V160H141H142V159V158H141H140V159ZM152 159V160H153H154V159V158H153H152V159ZM158 159V160H159H160V159V158H159H158V159ZM170 159V160H171H172V159V158H171H170V159ZM176 159V160H177H178V159V158H177H176V159ZM182 159V160H183H184V159V158H183H182V159ZM188 159V160H189H190V159V158H189H188V159ZM194 159V160H195H196V159V158H195H194V159ZM206 159V160H207H208V159V158H207H206V159ZM212 159V160H213H214V159V158H213H212V159ZM230 159V160H231H232V159V158H231H230V159ZM236 159V160H237H238V159V158H237H236V159ZM8 165V166H9H10V165V164H9H8V165ZM20 165V166H21H22V165V164H21H20V165ZM50 165V166H51H52V165V164H51H50V165ZM68 165V166H69H70V165V164H69H68V165ZM74 165V166H75H76V165V164H75H74V165ZM80 165V166H81H82V165V164H81H80V165ZM92 165V166H93H94V165V164H93H92V165ZM104 165V166H105H106V165V164H105H104V165ZM110 165V166H111H112V165V164H111H110V165ZM122 165V166H123H124V165V164H123H122V165ZM128 165V166H129H130V165V164H129H128V165ZM140 165V166H141H142V165V164H141H140V165ZM164 165V166H165H166V165V164H165H164V165ZM170 165V166H171H172V165V164H171H170V165ZM176 165V166H177H178V165V164H177H176V165ZM182 165V166H183H184V165V164H183H182V165ZM194 165V166H195H196V165V164H195H194V165ZM200 165V166H201H202V165V164H201H200V165ZM212 165V166H213H214V165V164H213H212V165ZM224 165V166H225H226V165V164H225H224V165ZM230 165V166H231H232V165V164H231H230V165ZM242 165V166H243H244V165V164H243H242V165ZM36 171V174H39H42V171V168H39H36V171ZM2 171V172H3H4V171V170H3H2V171ZM8 171V172H9H10V171V170H9H8V171ZM14 171V172H15H16V171V170H15H14V171ZM44 171V172H45H46V171V170H45H44V171ZM56 171V172H57H58V171V170H57H56V171ZM98 171V172H99H100V171V170H99H98V171ZM104 171V172H105H106V171V170H105H104V171ZM110 171V172H111H112V171V170H111H110V171ZM116 171V172H117H118V171V170H117H116V171ZM152 171V172H153H154V171V170H153H152V171ZM158 171V172H159H160V171V170H159H158V171ZM170 171V172H171H172V171V170H171H170V171ZM176 171V172H177H178V171V170H177H176V171ZM182 171V172H183H184V171V170H183H182V171ZM188 171V172H189H190V171V170H189H188V171ZM218 171V172H219H220V171V170H219H218V171ZM224 171V172H225H226V171V170H225H224V171ZM230 171V172H231H232V171V170H231H230V171ZM236 171V172H237H238V171V170H237H236V171ZM8 177V178H9H10V177V176H9H8V177ZM20 177V178H21H22V177V176H21H20V177ZM44 177V178H45H46V177V176H45H44V177ZM50 177V178H51H52V177V176H51H50V177ZM62 177V178H63H64V177V176H63H62V177ZM80 177V178H81H82V177V176H81H80V177ZM92 177V178H93H94V177V176H93H92V177ZM110 177V178H111H112V177V176H111H110V177ZM128 177V178H129H130V177V176H129H128V177ZM134 177V178H135H136V177V176H135H134V177ZM140 177V178H141H142V177V176H141H140V177ZM146 177V178H147H148V177V176H147H146V177ZM152 177V178H153H154V177V176H153H152V177ZM164 177V178H165H166V177V176H165H164V177ZM182 177V178H183H184V177V176H183H182V177ZM200 177V178H201H202V177V176H201H200V177ZM212 177V178H213H214V177V176H213H212V177ZM230 177V178H231H232V177V176H231H230V177ZM236 177V178H237H238V177V176H237H236V177ZM242 177V178H243H244V177V176H243H242V177ZM36 183V186H39H42V183V180H39H36V183ZM2 183V184H3H4V183V182H3H2V183ZM44 183V184H45H46V183V182H45H44V183ZM50 183V184H51H52V183V182H51H50V183ZM56 183V184H57H58V183V182H57H56V183ZM86 183V184H87H88V183V182H87H86V183ZM92 183V184H93H94V183V182H93H92V183ZM98 183V184H99H100V183V182H99H98V183ZM104 183V184H105H106V183V182H105H104V183ZM146 183V184H147H148V183V182H147H146V183ZM158 183V184H159H160V183V182H159H158V183ZM164 183V184H165H166V183V182H165H164V183ZM170 183V184H171H172V183V182H171H170V183ZM176 183V184H177H178V183V182H177H176V183ZM206 183V184H207H208V183V182H207H206V183ZM212 183V184H213H214V183V182H213H212V183ZM218 183V184H219H220V183V182H219H218V183ZM224 183V184H225H226V183V182H225H224V183ZM14 189V190H15H16V189V188H15H14V189ZM32 189V190H33H34V189V188H33H32V189ZM44 189V190H45H46V189V188H45H44V189ZM50 189V190H51H52V189V188H51H50V189ZM74 189V190H75H76V189V188H75H74V189ZM80 189V190H81H82V189V188H81H80V189ZM86 189V190H87H88V189V188H87H86V189ZM98 189V190H99H100V189V188H99H98V189ZM104 189V190H105H106V189V188H105H104V189ZM116 189V190H117H118V189V188H117H116V189ZM140 189V190H141H142V189V188H141H140V189ZM146 189V190H147H148V189V188H147H146V189ZM170 189V190H171H172V189V188H171H170V189ZM176 189V190H177H178V189V188H177H176V189ZM188 189V190H189H190V189V188H189H188V189ZM200 189V190H201H202V189V188H201H200V189ZM218 189V190H219H220V189V188H219H218V189ZM224 189V190H225H226V189V188H225H224V189ZM230 189V190H231H232V189V188H231H230V189ZM236 189V190H237H238V189V188H237H236V189ZM242 189V190H243H244V189V188H243H242V189ZM36 195V198H39H42V195V192H39H36V195ZM192 207V222H207H222V207V192H207H192V207ZM26 195V196H27H28V195V194H27H26V195ZM44 195V196H45H46V195V194H45H44V195ZM56 195V196H57H58V195V194H57H56V195ZM68 195V196H69H70V195V194H69H68V195ZM74 195V196H75H76V195V194H75H74V195ZM80 195V196H81H82V195V194H81H80V195ZM86 195V196H87H88V195V194H87H86V195ZM92 195V196H93H94V195V194H93H92V195ZM122 195V196H123H124V195V194H123H122V195ZM128 195V196H129H130V195V194H129H128V195ZM140 195V196H141H142V195V194H141H140V195ZM146 195V196H147H148V195V194H147H146V195ZM164 195V196H165H166V195V194H165H164V195ZM224 195V196H225H226V195V194H225H224V195ZM236 195V196H237H238V195V194H237H236V195ZM242 195V196H243H244V195V194H243H242V195ZM48 201V204H51H54V201V198H51H48V201ZM216 207V216H207H198V207V198H207H216V207ZM56 201V202H57H58V201V200H57H56V201ZM116 201V202H117H118V201V200H117H116V201ZM122 201V202H123H124V201V200H123H122V201ZM158 201V202H159H160V201V200H159H158V201ZM164 201V202H165H166V201V200H165H164V201ZM170 201V202H171H172V201V200H171H170V201ZM176 201V202H177H178V201V200H177H176V201ZM188 201V202H189H190V201V200H189H188V201ZM224 201V202H225H226V201V200H225H224V201ZM0 225V246H21H42V225V204H21H0V225ZM204 207V210H207H210V207V204H207H204V207ZM62 207V208H63H64V207V206H63H62V207ZM74 207V208H75H76V207V206H75H74V207ZM86 207V208H87H88V207V206H87H86V207ZM92 207V208H93H94V207V206H93H92V207ZM98 207V208H99H100V207V206H99H98V207ZM104 207V208H105H106V207V206H105H104V207ZM122 207V208H123H124V207V206H123H122V207ZM128 207V208H129H130V207V206H129H128V207ZM134 207V208H135H136V207V206H135H134V207ZM146 207V208H147H148V207V206H147H146V207ZM164 207V208H165H166V207V206H165H164V207ZM188 207V208H189H190V207V206H189H188V207ZM242 207V208H243H244V207V206H243H242V207ZM36 225V240H21H6V225V210H21H36V225ZM98 213V214H99H100V213V212H99H98V213ZM116 213V214H117H118V213V212H117H116V213ZM146 213V214H147H148V213V212H147H146V213ZM152 213V214H153H154V213V212H153H152V213ZM158 213V214H159H160V213V212H159H158V213ZM164 213V214H165H166V213V212H165H164V213ZM176 213V214H177H178V213V212H177H176V213ZM188 213V214H189H190V213V212H189H188V213ZM230 213V214H231H232V213V212H231H230V213ZM236 213V214H237H238V213V212H237H236V213ZM242 213V214H243H244V213V212H243H242V213ZM12 225V234H21H30V225V216H21H12V225ZM56 219V220H57H58V219V218H57H56V219ZM68 219V220H69H70V219V218H69H68V219ZM92 219V220H93H94V219V218H93H92V219ZM110 219V220H111H112V219V218H111H110V219ZM122 219V220H123H124V219V218H123H122V219ZM128 219V220H129H130V219V218H129H128V219ZM140 219V220H141H142V219V218H141H140V219ZM146 219V220H147H148V219V218H147H146V219ZM158 219V220H159H160V219V218H159H158V219ZM182 219V220H183H184V219V218H183H182V219ZM224 219V220H225H226V219V218H225H224V219ZM230 219V220H231H232V219V218H231H230V219ZM242 219V220H243H244V219V218H243H242V219ZM48 225V228H51H54V225V222H51H48V225ZM56 225V226H57H58V225V224H57H56V225ZM74 225V226H75H76V225V224H75H74V225ZM86 225V226H87H88V225V224H87H86V225ZM104 225V226H105H106V225V224H105H104V225ZM110 225V226H111H112V225V224H111H110V225ZM116 225V226H117H118V225V224H117H116V225ZM122 225V226H123H124V225V224H123H122V225ZM170 225V226H171H172V225V224H171H170V225ZM176 225V226H177H178V225V224H177H176V225ZM182 225V226H183H184V225V224H183H182V225ZM194 225V226H195H196V225V224H195H194V225ZM224 225V226H225H226V225V224H225H224V225ZM230 225V226H231H232V225V224H231H230V225ZM236 225V226H237H238V225V224H237H236V225ZM242 225V226H243H244V225V224H243H242V225ZM56 231V232H57H58V231V230H57H56V231ZM62 231V232H63H64V231V230H63H62V231ZM86 231V232H87H88V231V230H87H86V231ZM110 231V232H111H112V231V230H111H110V231ZM122 231V232H123H124V231V230H123H122V231ZM128 231V232H129H130V231V230H129H128V231ZM140 231V232H141H142V231V230H141H140V231ZM146 231V232H147H148V231V230H147H146V231ZM158 231V232H159H160V231V230H159H158V231ZM182 231V232H183H184V231V230H183H182V231ZM200 231V232H201H202V231V230H201H200V231ZM212 231V232H213H214V231V230H213H212V231ZM218 231V232H219H220V231V230H219H218V231ZM230 231V232H231H232V231V230H231H230V231ZM242 231V232H243H244V231V230H243H242V231ZM80 237V238H81H82V237V236H81H80V237ZM86 237V238H87H88V237V236H87H86V237ZM92 237V238H93H94V237V236H93H92V237ZM98 237V238H99H100V237V236H99H98V237ZM104 237V238H105H106V237V236H105H104V237ZM110 237V238H111H112V237V236H111H110V237ZM122 237V238H123H124V237V236H123H122V237ZM128 237V238H129H130V237V236H129H128V237ZM134 237V238H135H136V237V236H135H134V237ZM146 237V238H147H148V237V236H147H146V237ZM152 237V238H153H154V237V236H153H152V237ZM158 237V238H159H160V237V236H159H158V237ZM164 237V238H165H166V237V236H165H164V237ZM170 237V238H171H172V237V236H171H170V237ZM200 237V238H201H202V237V236H201H200V237ZM212 237V238H213H214V237V236H213H212V237ZM236 237V238H237H238V237V236H237H236V237ZM242 237V238H243H244V237V236H243H242V237ZM48 243V246H51H54V243V240H51H48V243ZM62 243V244H63H64V243V242H63H62V243ZM74 243V244H75H76V243V242H75H74V243ZM92 243V244H93H94V243V242H93H92V243ZM104 243V244H105H106V243V242H105H104V243ZM110 243V244H111H112V243V242H111H110V243ZM116 243V244H117H118V243V242H117H116V243ZM128 243V244H129H130V243V242H129H128V243ZM134 243V244H135H136V243V242H135H134V243ZM140 243V244H141H142V243V242H141H140V243ZM146 243V244H147H148V243V242H147H146V243ZM164 243V244H165H166V243V242H165H164V243ZM182 243V244H183H184V243V242H183H182V243ZM194 243V244H195H196V243V242H195H194V243ZM200 243V244H201H202V243V242H201H200V243ZM206 243V244H207H208V243V242H207H206V243ZM212 243V244H213H214V243V242H213H212V243ZM230 243V244H231H232V243V242H231H230V243ZM242 243V244H243H244V243V242H243H242V243Z" fill="black"/>
</svg>
