<svg width="246" height="246" viewBox="0 0 246 246" fill="none" xmlns="http://www.w3.org/2000/svg">
<path fill-rule="evenodd" clip-rule="evenodd" d="M0 21V42H21H42V21V0H21H0V21ZM204 21V42H225H246V21V0H225H204V21ZM56 3V4H57H58V3V2H57H56V3ZM68 3V4H69H70V3V2H69H68V3ZM74 3V4H75H76V3V2H75H74V3ZM86 3V4H87H88V3V2H87H86V3ZM104 3V4H105H106V3V2H105H104V3ZM128 3V4H129H130V3V2H129H128V3ZM134 3V4H135H136V3V2H135H134V3ZM146 3V4H147H148V3V2H147H146V3ZM152 3V4H153H154V3V2H153H152V3ZM164 3V4H165H166V3V2H165H164V3ZM170 3V4H171H172V3V2H171H170V3ZM182 3V4H183H184V3V2H183H182V3ZM194 3V4H195H196V3V2H195H194V3ZM36 21V36H21H6V21V6H21H36V21ZM240 21V36H225H210V21V6H225H240V21ZM56 9V10H57H58V9V8H57H56V9ZM86 9V10H87H88V9V8H87H86V9ZM92 9V10H93H94V9V8H93H92V9ZM98 9V10H99H100V9V8H99H98V9ZM110 9V10H111H112V9V8H111H110V9ZM122 9V10H123H124V9V8H123H122V9ZM140 9V10H141H142V9V8H141H140V9ZM164 9V10H165H166V9V8H165H164V9ZM176 9V10H177H178V9V8H177H176V9ZM188 9V10H189H190V9V8H189H188V9ZM12 21V30H21H30V21V12H21H12V21ZM48 15V18H51H54V15V12H51H48V15ZM216 21V30H225H234V21V12H225H216V21ZM56 15V16H57H58V15V14H57H56V15ZM62 15V16H63H64V15V14H63H62V15ZM68 15V16H69H70V15V14H69H68V15ZM80 15V16H81H82V15V14H81H80V15ZM86 15V16H87H88V15V14H87H86V15ZM92 15V16H93H94V15V14H93H92V15ZM122 15V16H123H124V15V14H123H122V15ZM128 15V16H129H130V15V14H129H128V15ZM140 15V16H141H142V15V14H141H140V15ZM146 15V16H147H148V15V14H147H146V15ZM158 15V16H159H160V15V14H159H158V15ZM170 15V16H171H172V15V14H171H170V15ZM176 15V16H177H178V15V14H177H176V15ZM182 15V16H183H184V15V14H183H182V15ZM194 15V16H195H196V15V14H195H194V15ZM56 21V22H57H58V21V20H57H56V21ZM62 21V22H63H64V21V20H63H62V21ZM86 21V22H87H88V21V20H87H86V21ZM92 21V22H93H94V21V20H93H92V21ZM98 21V22H99H100V21V20H99H98V21ZM104 21V22H105H106V21V20H105H104V21ZM122 21V22H123H124V21V20H123H122V21ZM134 21V22H135H136V21V20H135H134V21ZM158 21V22H159H160V21V20H159H158V21ZM164 21V22H165H166V21V20H165H164V21ZM176 21V22H177H178V21V20H177H176V21ZM182 21V22H183H184V21V20H183H182V21ZM194 21V22H195H196V21V20H195H194V21ZM48 33V42H51H54V33V24H51H48V33ZM62 27V28H63H64V27V26H63H62V27ZM68 27V28H69H70V27V26H69H68V27ZM86 27V28H87H88V27V26H87H86V27ZM92 27V28H93H94V27V26H93H92V27ZM116 27V28H117H118V27V26H117H116V27ZM134 27V28H135H136V27V26H135H134V27ZM140 27V28H141H142V27V26H141H140V27ZM146 27V28H147H148V27V26H147H146V27ZM152 27V28H153H154V27V26H153H152V27ZM158 27V28H159H160V27V26H159H158V27ZM170 27V28H171H172V27V26H171H170V27ZM188 27V28H189H190V27V26H189H188V27ZM80 33V34H81H82V33V32H81H80V33ZM86 33V34H87H88V33V32H87H86V33ZM98 33V34H99H100V33V32H99H98V33ZM104 33V34H105H106V33V32H105H104V33ZM110 33V34H111H112V33V32H111H110V33ZM116 33V34H117H118V33V32H117H116V33ZM134 33V34H135H136V33V32H135H134V33ZM140 33V34H141H142V33V32H141H140V33ZM146 33V34H147H148V33V32H147H146V33ZM158 33V34H159H160V33V32H159H158V33ZM176 33V34H177H178V33V32H177H176V33ZM188 33V34H189H190V33V32H189H188V33ZM60 39V42H63H66V39V36H63H60V39ZM72 39V42H75H78V39V36H75H72V39ZM84 38.571V41.143L82.571 42.571L81.143 44H79.792H78.442L77 46L75.558 48H73.779H72V49.779V51.558L70 53L68 54.442V56.221V58H67H66V60V62H65H64V72V82H65H66V84.779V87.558L68 89L70 90.442V92V93.558L72 95L74 96.442V98.221V100H77H80V101V102H82H84V103V104H86H88V105V106H90H92V105V104H93H94V106V108H96.571H99.143L100.571 109.429L102 110.857V119.429V128H103H104V131V134H105H106V137V140H107H108V142V144H109H110V146V148H111.571H113.143L114.571 149.429L116 150.857V152.429V154H118H120V155V156H118H116V156.571V157.143L117.429 158.571L118.857 160H120.429H122V159V158H124H126V159V160H129H132V161V162H142H152V161V160H155.545H159.091L161.545 157.545L164 155.091V153.545V152H164.917H165.833L166.341 153.25L166.848 154.5L167.924 153L169 151.5L169.946 152.971L170.891 154.442L171.667 153.667L172.442 152.891L170.971 151.946L169.5 151L171 149.924L172.5 148.848L171.25 148.341L170 147.833V146.917V146H171.545H173.091L175.545 143.545L178 141.091V138.629V136.167L176.75 135.72L175.5 135.274L176.387 134.387L177.274 133.5L177.72 134.75L178.167 136H179.083H180V131.367V126.735L182.25 124.733L184.5 122.731L183.25 122.282L182 121.833V118.917V116H181H180V112.221V108.442L178 107L176 105.558V102.863V100.167L177.25 99.72L178.5 99.274L177.696 98.416L176.891 97.558L176.031 98.95L175.171 100.341L171.164 96.171L167.157 92H165.98H164.802L162 89L159.198 86H156.682H154.167L153.583 87.25L153 88.5L152.417 87.25L151.833 86H150H148.167L147.72 87.25L147.274 88.5L146.387 87.613L145.5 86.726L146.75 86.28L148 85.833V84.917V84H143H138V85V86H135H132V85V84H133H134V82V80H135H136V78.083V76.167L134.75 75.72L133.5 75.274L134.304 74.416L135.109 73.558L135.964 74.941L136.818 76.324L138.409 74.734L140 73.143V70.571V68H141.526H143.053L147.526 63.526L152 59.053V57.526V56H153.599H155.198L158 53L160.802 50H162.318H163.833L164.28 51.25L164.726 52.5L165.584 51.696L166.442 50.891L165.059 50.036L163.676 49.182L165.266 47.591L166.857 46H169.429H172V44V42H173H174V39V36H171H168V39V42H165.221H162.442L161 44L159.558 46H157H154.442L153 48L151.558 50H148.779H146V52V54H144H142V56V58H141H140V50V42H139H138V39V36H135H132V39V42H134H136V44V46H134H132V45V44H130.429H128.857L127.429 42.571L126 41.143V38.571V36H123H120V39V42H118H116V44V46H118.917H121.833L122.28 44.75L122.726 43.5L123.584 44.304L124.442 45.109L122.971 46.054L121.5 47L123 48L124.5 49L123.029 49.946L121.558 50.891L122.333 51.667L123.109 52.442L123.954 51.075L124.799 49.708L127.621 52.53L130.443 55.352L129.222 55.759L128 56.167V57.083V58H129.545H131.091L133.652 60.561L136.212 63.121L135.552 63.782L134.891 64.442L133.946 62.971L133 61.5L132 63L131 64.5L130.054 63.029L129.109 61.558L128.333 62.333L127.558 63.109L129.029 64.054L130.5 65L129 66L127.5 67L128.971 67.946L130.442 68.891L129.667 69.667L128.891 70.442L128.046 69.075L127.201 67.708L124.455 70.455L121.708 73.201L123.075 74.046L124.442 74.891L123.667 75.667L122.891 76.442L122.046 75.075L121.201 73.708L118.379 76.53L115.557 79.352L116.778 79.759L118 80.167V81.083V82H116.429H114.857L113.429 83.429L112 84.857V86.429V88H111H110V90V92H109H108V91V90H105.221H102.442L101 88L99.558 86H96.863H94.167L93.72 87.25L93.274 88.5L92.387 87.613L91.5 86.726L92.75 86.28L94 85.833V84.917V84H92.221H90.442L89 82L87.558 80H86.234H84.909L82.455 77.545L80 75.091V71.545V68H79H78V64.367V60.735L80.218 58.811L82.436 56.887L80.968 55.868L79.5 54.848L80.75 54.341L82 53.833V52.383V50.933L85.467 47.467L88.933 44H90.467H92V43V42H91H90V39V36H87H84V38.571ZM96 39V42H99H102V39V36H99H96V39ZM108 39V42H111H114V39V36H111H108V39ZM144 39V42H147H150V39V36H147H144V39ZM156 39V42H159H162V39V36H159H156V39ZM180 39V42H183H186V39V36H183H180V39ZM192 39V42H195H198V39V36H195H192V39ZM56 45V46H57H58V45V44H57H56V45ZM62 45V46H63H64V45V44H63H62V45ZM68 45V46H69H70V45V44H69H68V45ZM98 45V46H99H100V45V44H99H98V45ZM104 45V46H105H106V45V44H105H104V45ZM110 45V46H111H112V45V44H111H110V45ZM176 45V46H177H178V45V44H177H176V45ZM182 45V46H183H184V45V44H183H182V45ZM194 45V46H195H196V45V44H195H194V45ZM0 51V54H3H6V51V48H3H0V51ZM18 51V54H21H24V51V48H21H18V51ZM36 51V54H39H42V51V48H39H36V51ZM48 51V54H51H54V51V48H51H48V51ZM198 51V54H201H204V51V48H201H198V51ZM210 51V54H216H222V51V48H216H210V51ZM228 51V54H231H234V51V48H231H228V51ZM56 51V52H57H58V51V50H57H56V51ZM62 51V52H63H64V51V50H63H62V51ZM92 51V52H93H94V51V50H93H92V51ZM98 51V52H99H100V51V50H99H98V51ZM104 51V52H105H106V51V50H105H104V51ZM116 51V52H117H118V51V50H117H116V51ZM194 51V52H195H196V51V50H195H194V51ZM26 57V58H27H28V57V56H27H26V57ZM32 57V58H33H34V57V56H33H32V57ZM44 57V58H45H46V57V56H45H44V57ZM50 57V58H51H52V57V56H51H50V57ZM56 57V58H57H58V57V56H57H56V57ZM62 57V58H63H64V57V56H63H62V57ZM76 57V58H75H74V57V56H75H76V57ZM98 57V58H99H100V57V56H99H98V57ZM136 57V58H135H134V57V56H135H136V57ZM148 57V58H147H146V57V56H147H148V57ZM158 57V58H159H160V57V56H159H158V57ZM164 57V58H165H166V57V56H165H164V57ZM176 57V58H177H178V57V56H177H176V57ZM182 57V58H183H184V57V56H183H182V57ZM206 57V58H207H208V57V56H207H206V57ZM212 57V58H213H214V57V56H213H212V57ZM236 57V58H237H238V57V56H237H236V57ZM242 57V58H243H244V57V56H243H242V57ZM101.25 59.496L100 60.916V62.09V63.265L97.75 65.267L95.5 67.269L96.75 67.718L98 68.167V69.655V71.143L99.429 72.571L100.857 74H102.345H103.833L104.417 75.25L105 76.5L105.583 75.25L106.167 74H108H109.833L110.28 75.25L110.726 76.5L111.584 75.696L112.442 74.891L110.971 73.946L109.5 73L111 71.924L112.5 70.848L111.25 70.341L110 69.833V68.917V68H112H114V67V66H113H112V64.455V62.909L109.545 60.455L107.091 58L104.795 58.038L102.5 58.076L101.25 59.496ZM36 63V66H39H42V63V60H39H36V63ZM152 63V64H153H154V63V62H153H152V63ZM188 63V64H189H190V63V62H189H188V63ZM194 63V64H195H196V63V62H195H194V63ZM200 63V64H201H202V63V62H201H200V63ZM212 63V64H213H214V63V62H213H212V63ZM230 63V64H231H232V63V62H231H230V63ZM242 63V64H243H244V63V62H243H242V63ZM2 69V70H3H4V69V68H3H2V69ZM8 69V70H9H10V69V68H9H8V69ZM14 69V70H15H16V69V68H15H14V69ZM20 69V70H21H22V69V68H21H20V69ZM56 69V70H57H58V69V68H57H56V69ZM70 69V70H69H68V69V68H69H70V69ZM76 69V70H75H74V69V68H75H76V69ZM92 69V70H93H94V69V68H93H92V69ZM106 69V70H105H104V69V68H105H106V69ZM136 69V70H135H134V69V68H135H136V69ZM146 69V70H147H148V69V68H147H146V69ZM152 69V70H153H154V69V68H153H152V69ZM158 69V70H159H160V69V68H159H158V69ZM164 69V70H165H166V69V68H165H164V69ZM170 69V70H171H172V69V68H171H170V69ZM176 69V70H177H178V69V68H177H176V69ZM194 69V70H195H196V69V68H195H194V69ZM200 69V70H201H202V69V68H201H200V69ZM212 69V70H213H214V69V68H213H212V69ZM224 69V70H225H226V69V68H225H224V69ZM230 69V70H231H232V69V68H231H230V69ZM36 75V78H39H42V75V72H39H36V75ZM2 75V76H3H4V75V74H3H2V75ZM14 75V76H15H16V75V74H15H14V75ZM32 75V76H33H34V75V74H33H32V75ZM92 75V76H93H94V75V74H93H92V75ZM176 75V76H177H178V75V74H177H176V75ZM206 75V76H207H208V75V74H207H206V75ZM230 75V76H231H232V75V74H231H230V75ZM2 81V82H3H4V81V80H3H2V81ZM8 81V82H9H10V81V80H9H8V81ZM14 81V82H15H16V81V80H15H14V81ZM20 81V82H21H22V81V80H21H20V81ZM26 81V82H27H28V81V80H27H26V81ZM32 81V82H33H34V81V80H33H32V81ZM44 81V82H45H46V81V80H45H44V81ZM50 81V82H51H52V81V80H51H50V81ZM70 81V82H69H68V81V80H69H70V81ZM82 81V82H81H80V81V80H81H82V81ZM98 81V82H99H100V81V80H99H98V81ZM104 81V82H105H106V81V80H105H104V81ZM146 81V82H147H148V81V80H147H146V81ZM164 81V82H165H166V81V80H165H164V81ZM170 81V82H171H172V81V80H171H170V81ZM176 81V82H177H178V81V80H177H176V81ZM182 81V82H183H184V81V80H183H182V81ZM194 81V82H195H196V81V80H195H194V81ZM206 81V82H207H208V81V80H207H206V81ZM236 81V82H237H238V81V80H237H236V81ZM242 81V82H243H244V81V80H243H242V81ZM36 87V90H39H42V87V84H39H36V87ZM2 87V88H3H4V87V86H3H2V87ZM14 87V88H15H16V87V86H15H14V87ZM26 87V88H27H28V87V86H27H26V87ZM44 87V88H45H46V87V86H45H44V87ZM50 87V88H51H52V87V86H51H50V87ZM56 87V88H57H58V87V86H57H56V87ZM62 87V88H63H64V87V86H63H62V87ZM76 87V88H75H74V87V86H75H76V87ZM88 87V88H87H86V87V86H87H88V87ZM104 87V88H105H106V87V86H105H104V87ZM124 87V88H123H122V87V86H123H124V87ZM130 87V88H129H128V87V86H129H130V87ZM164 87V88H165H166V87V86H165H164V87ZM182 87V88H183H184V87V86H183H182V87ZM206 87V88H207H208V87V86H207H206V87ZM224 87V88H225H226V87V86H225H224V87ZM230 87V88H231H232V87V86H231H230V87ZM144 89V90H147H150V91V92H152H154V93.779V95.558L156 97L158 98.442V100.221V102H159H160V104V106H161H162V108V110H164H166V111V112H165H164V113.917V115.833L165.25 116.417L166.5 117L165.25 117.583L164 118.167V120.083V122H165H166V128V134H165H164V136.917V139.833L165.25 140.282L166.5 140.731L164.25 142.733L162 144.735V146.367V148H161H160V151V154H158H156V155V156H154H152V157V158H150H148V159V160H145.083H142.167L141.583 158.75L141 157.5L140.417 158.75L139.833 160H136.917H134V159V158H132H130V157.474V156.947L134.474 152.474L138.947 148H140.474H142V145V142H143H144V140V138H145H146V134.083V130.167L147.25 129.583L148.5 129L147.25 128.417L146 127.833V122.917V118H145H144V115.221V112.442L142 111L140 109.558V107.863V106.167L141.25 105.72L142.5 105.274L141.696 104.416L140.891 103.558L139.946 105.029L139 106.5L138 105L137 103.5L136.054 104.971L135.109 106.442L134.304 105.584L133.5 104.726L134.75 104.28L136 103.833V102.917V102H134.221H132.442L131 100L129.558 98H127.779H126V96V94H128H130V92V90H132H134V89V88H139H144V89ZM26 93V94H27H28V93V92H27H26V93ZM76 93V94H75H74V93V92H75H76V93ZM82 93V94H81H80V93V92H81H82V93ZM94 93V94H93H92V93V92H93H94V93ZM106 93V94H105H104V93V92H105H106V93ZM140 93V94H141H142V93V92H141H140V93ZM160 93V94H159H158V93V92H159H160V93ZM182 93V94H183H184V93V92H183H182V93ZM188 93V94H189H190V93V92H189H188V93ZM194 93V94H195H196V93V92H195H194V93ZM206 93V94H207H208V93V92H207H206V93ZM212 93V94H213H214V93V92H213H212V93ZM218 93V94H219H220V93V92H219H218V93ZM224 93V94H225H226V93V92H225H224V93ZM230 93V94H231H232V93V92H231H230V93ZM36 99V102H39H42V99V96H39H36V99ZM2 99V100H3H4V99V98H3H2V99ZM8 99V100H9H10V99V98H9H8V99ZM14 99V100H15H16V99V98H15H14V99ZM26 99V100H27H28V99V98H27H26V99ZM32 99V100H33H34V99V98H33H32V99ZM44 99V100H45H46V99V98H45H44V99ZM50 99V100H51H52V99V98H51H50V99ZM56 99V100H57H58V99V98H57H56V99ZM146 99V100H147H148V99V98H147H146V99ZM166 99V100H165H164V99V98H165H166V99ZM182 99V100H183H184V99V98H183H182V99ZM200 99V100H201H202V99V98H201H200V99ZM212 99V100H213H214V99V98H213H212V99ZM224 99V100H225H226V99V98H225H224V99ZM242 99V100H243H244V99V98H243H242V99ZM14 105V106H15H16V105V104H15H14V105ZM20 105V106H21H22V105V104H21H20V105ZM26 105V106H27H28V105V104H27H26V105ZM32 105V106H33H34V105V104H33H32V105ZM50 105V106H51H52V105V104H51H50V105ZM56 105V106H57H58V105V104H57H56V105ZM100 105V106H99H98V105V104H99H100V105ZM112 105V106H111H110V105V104H111H112V105ZM118 105V106H117H116V105V104H117H118V105ZM124 105V106H123H122V105V104H123H124V105ZM130 105V106H129H128V105V104H129H130V105ZM152 105V106H153H154V105V104H153H152V105ZM172 105V106H171H170V105V104H171H172V105ZM182 105V106H183H184V105V104H183H182V105ZM194 105V106H195H196V105V104H195H194V105ZM200 105V106H201H202V105V104H201H200V105ZM206 105V106H207H208V105V104H207H206V105ZM218 105V106H219H220V105V104H219H218V105ZM224 105V106H225H226V105V104H225H224V105ZM230 105V106H231H232V105V104H231H230V105ZM236 105V106H237H238V105V104H237H236V105ZM36 111V114H39H42V111V108H39H36V111ZM2 111V112H3H4V111V110H3H2V111ZM14 111V112H15H16V111V110H15H14V111ZM50 111V112H51H52V111V110H51H50V111ZM80 111V112H81H82V111V110H81H80V111ZM86 111V112H87H88V111V110H87H86V111ZM106 111V112H105H104V111V110H105H106V111ZM118 111V112H117H116V111V110H117H118V111ZM136 111V112H135H134V111V110H135H136V111ZM152 111V112H153H154V111V110H153H152V111ZM158 111V112H159H160V111V110H159H158V111ZM172 111V112H171H170V111V110H171H172V111ZM182 111V112H183H184V111V110H183H182V111ZM188 111V112H189H190V111V110H189H188V111ZM200 111V112H201H202V111V110H201H200V111ZM230 111V112H231H232V111V110H231H230V111ZM242 111V112H243H244V111V110H243H242V111ZM14 117V118H15H16V117V116H15H14V117ZM26 117V118H27H28V117V116H27H26V117ZM32 117V118H33H34V117V116H33H32V117ZM44 117V118H45H46V117V116H45H44V117ZM50 117V118H51H52V117V116H51H50V117ZM56 117V118H57H58V117V116H57H56V117ZM68 117V118H69H70V117V116H69H68V117ZM74 117V118H75H76V117V116H75H74V117ZM80 117V118H81H82V117V116H81H80V117ZM112 117V118H111H110V117V116H111H112V117ZM123.164 120.171L127.171 124.341L128.031 122.95L128.891 121.558L129.696 122.416L130.5 123.274L129.25 123.72L128 124.167V126.083V128H129H130V135V142H129H128V144V146H129H130V147V148H128H126V149V150H124H122V148V146H121H120V142V138H119H118V134.083V130.167L116.75 129.583L115.5 129L116.75 128.417L118 127.833V122.917V118H117H116V117V116H117.578H119.157L123.164 120.171ZM136 117V118H135H134V117V116H135H136V117ZM172 117V118H171H170V117V116H171H172V117ZM178 117V118H177H176V117V116H177H178V117ZM212 117V118H213H214V117V116H213H212V117ZM218 117V118H219H220V117V116H219H218V117ZM224 117V118H225H226V117V116H225H224V117ZM230 117V118H231H232V117V116H231H230V117ZM36 123V126H39H42V123V120H39H36V123ZM2 123V124H3H4V123V122H3H2V123ZM26 123V124H27H28V123V122H27H26V123ZM56 123V124H57H58V123V122H57H56V123ZM86 123V124H87H88V123V122H87H86V123ZM92 123V124H93H94V123V122H93H92V123ZM98 123V124H99H100V123V122H99H98V123ZM142 123V124H141H140V123V122H141H142V123ZM172 123V124H171H170V123V122H171H172V123ZM194 123V124H195H196V123V122H195H194V123ZM200 123V124H201H202V123V122H201H200V123ZM206 123V124H207H208V123V122H207H206V123ZM230 123V124H231H232V123V122H231H230V123ZM242 123V124H243H244V123V122H243H242V123ZM2 129V130H3H4V129V128H3H2V129ZM14 129V130H15H16V129V128H15H14V129ZM26 129V130H27H28V129V128H27H26V129ZM56 129V130H57H58V129V128H57H56V129ZM62 129V130H63H64V131.917V133.833L62.75 134.417L61.5 135L62.75 135.583L64 136.167V138V139.833L62.75 140.417L61.5 141L62.75 141.583L64 142.167V147V151.833L62.75 152.417L61.5 153L62.75 153.583L64 154.167V158.083V162H65H66V160.429V158.857L67.429 157.429L68.857 156H71.429H74V158V160H74.917H75.833L76.417 158.75L77 157.5L77.583 158.75L78.167 160H82.083H86V161V162H102H118V161.429V160.857L116.571 159.429L115.143 158H112.571H110V159V160H108.083H106.167L105.583 158.75L105 157.5L104.417 158.75L103.833 160H102H100.167L99.583 158.75L99 157.5L98.417 158.75L97.833 160H94.917H92V159V158H90H88V157V156H86H84V155V154H82H80V152.422V150.843L76 147L72 143.157V141.799V140.442L70 139L68 137.558V135.779V134H67H66V131V128H64H62V129ZM68 129V130H69H70V129V128H69H68V129ZM122 129V130H123H124V129V128H123H122V129ZM142 129V130H141H140V129V128H141H142V129ZM152 129V130H153H154V129V128H153H152V129ZM172 129V130H171H170V129V128H171H172V129ZM200 129V130H201H202V129V128H201H200V129ZM218 129V130H219H220V129V128H219H218V129ZM224 129V130H225H226V129V128H225H224V129ZM230 129V130H231H232V129V128H231H230V129ZM236 129V130H237H238V129V128H237H236V129ZM36 135V138H39H42V135V132H39H36V135ZM2 135V136H3H4V135V134H3H2V135ZM20 135V136H21H22V135V134H21H20V135ZM32 135V136H33H34V135V134H33H32V135ZM80 135V136H81H82V135V134H81H80V135ZM86 135V136H87H88V135V134H87H86V135ZM92 135V136H93H94V135V134H93H92V135ZM112 135V136H111H110V135V134H111H112V135ZM122 135V136H123H124V135V134H123H122V135ZM142 135V136H141H140V135V134H141H142V135ZM172 135V136H171H170V135V134H171H172V135ZM182 135V136H183H184V135V134H183H182V135ZM194 135V136H195H196V135V134H195H194V135ZM200 135V136H201H202V135V134H201H200V135ZM242 135V136H243H244V135V134H243H242V135ZM2 141V142H3H4V141V140H3H2V141ZM14 141V142H15H16V141V140H15H14V141ZM20 141V142H21H22V141V140H21H20V141ZM32 141V142H33H34V141V140H33H32V141ZM56 141V142H57H58V141V140H57H56V141ZM70 141V142H69H68V141V140H69H70V141ZM98 141V142H99H100V141V140H99H98V141ZM112 141V142H111H110V141V140H111H112V141ZM122 141V142H123H124V141V140H123H122V141ZM136 141V142H135H134V141V140H135H136V141ZM158 141V142H159H160V141V140H159H158V141ZM172 141V142H171H170V141V140H171H172V141ZM188 141V142H189H190V141V140H189H188V141ZM206 141V142H207H208V141V140H207H206V141ZM212 141V142H213H214V141V140H213H212V141ZM218 141V142H219H220V141V140H219H218V141ZM224 141V142H225H226V141V140H225H224V141ZM230 141V142H231H232V141V140H231H230V141ZM236 141V142H237H238V141V140H237H236V141ZM36 147V150H39H42V147V144H39H36V147ZM2 147V148H3H4V147V146H3H2V147ZM26 147V148H27H28V147V146H27H26V147ZM32 147V148H33H34V147V146H33H32V147ZM50 147V148H51H52V147V146H51H50V147ZM70 147V148H69H68V147V146H69H70V147ZM80 147V148H81H82V147V146H81H80V147ZM98 147V148H99H100V147V146H99H98V147ZM118 147V148H117H116V147V146H117H118V147ZM136 147V148H135H134V147V146H135H136V147ZM152 147V148H153H154V147V146H153H152V147ZM182 147V148H183H184V147V146H183H182V147ZM200 147V148H201H202V147V146H201H200V147ZM206 147V148H207H208V147V146H207H206V147ZM2 153V154H3H4V153V152H3H2V153ZM14 153V154H15H16V153V152H15H14V153ZM20 153V154H21H22V153V152H21H20V153ZM26 153V154H27H28V153V152H27H26V153ZM44 153V154H45H46V153V152H45H44V153ZM50 153V154H51H52V153V152H51H50V153ZM76 153V154H75H74V153V152H75H76V153ZM92 153V154H93H94V153V152H93H92V153ZM98 153V154H99H100V153V152H99H98V153ZM104 153V154H105H106V153V152H105H104V153ZM110 153V154H111H112V153V152H111H110V153ZM130 153V154H129H128V153V152H129H130V153ZM146 153V154H147H148V153V152H147H146V153ZM182 153V154H183H184V153V152H183H182V153ZM194 153V154H195H196V153V152H195H194V153ZM206 153V154H207H208V153V152H207H206V153ZM212 153V154H213H214V153V152H213H212V153ZM230 153V154H231H232V153V152H231H230V153ZM36 159V162H39H42V159V156H39H36V159ZM8 159V160H9H10V159V158H9H8V159ZM14 159V160H15H16V159V158H15H14V159ZM20 159V160H21H22V159V158H21H20V159ZM26 159V160H27H28V159V158H27H26V159ZM32 159V160H33H34V159V158H33H32V159ZM44 159V160H45H46V159V158H45H44V159ZM56 159V160H57H58V159V158H57H56V159ZM68 159V160H69H70V159V158H69H68V159ZM170 159V160H171H172V159V158H171H170V159ZM176 159V160H177H178V159V158H177H176V159ZM182 159V160H183H184V159V158H183H182V159ZM188 159V160H189H190V159V158H189H188V159ZM194 159V160H195H196V159V158H195H194V159ZM206 159V160H207H208V159V158H207H206V159ZM212 159V160H213H214V159V158H213H212V159ZM230 159V160H231H232V159V158H231H230V159ZM236 159V160H237H238V159V158H237H236V159ZM8 165V166H9H10V165V164H9H8V165ZM20 165V166H21H22V165V164H21H20V165ZM50 165V166H51H52V165V164H51H50V165ZM68 165V166H69H70V165V164H69H68V165ZM74 165V166H75H76V165V164H75H74V165ZM80 165V166H81H82V165V164H81H80V165ZM92 165V166H93H94V165V164H93H92V165ZM104 165V166H105H106V165V164H105H104V165ZM110 165V166H111H112V165V164H111H110V165ZM122 165V166H123H124V165V164H123H122V165ZM128 165V166H129H130V165V164H129H128V165ZM140 165V166H141H142V165V164H141H140V165ZM164 165V166H165H166V165V164H165H164V165ZM170 165V166H171H172V165V164H171H170V165ZM176 165V166H177H178V165V164H177H176V165ZM182 165V166H183H184V165V164H183H182V165ZM194 165V166H195H196V165V164H195H194V165ZM200 165V166H201H202V165V164H201H200V165ZM212 165V166H213H214V165V164H213H212V165ZM224 165V166H225H226V165V164H225H224V165ZM230 165V166H231H232V165V164H231H230V165ZM242 165V166H243H244V165V164H243H242V165ZM36 171V174H39H42V171V168H39H36V171ZM2 171V172H3H4V171V170H3H2V171ZM8 171V172H9H10V171V170H9H8V171ZM14 171V172H15H16V171V170H15H14V171ZM44 171V172H45H46V171V170H45H44V171ZM56 171V172H57H58V171V170H57H56V171ZM98 171V172H99H100V171V170H99H98V171ZM104 171V172H105H106V171V170H105H104V171ZM110 171V172H111H112V171V170H111H110V171ZM116 172V174H113H110V175V176H108H106V177V178H104.221H102.442L101 180L99.558 182H97.208H94.857L93.188 180.33L91.518 178.661L92.759 178.247L94 177.833V176.917V176H91.429H88.857L87.429 177.429L86 178.857V181.429V184H77H68V182.455V180.909L70.455 178.455L72.909 176H74.455H76V175V174H79H82V174.917V175.833L80.75 176.28L79.5 176.726L80.304 177.584L81.109 178.442L82.054 176.971L83 175.5L83.909 176.912L84.818 178.324L86.409 176.734L88 175.143V174.571V174H86H84V173V172H79H74V173V174H71.367H68.735L66.811 176.218L64.887 178.436L63.998 176.997L63.109 175.558L62.304 176.416L61.5 177.274L62.75 177.72L64 178.167V180.863V183.558L62 185L60 186.442V195.221V204H61H62V206V208H63H64V209.545V211.091L66.455 213.545L68.909 216H71.455H74V217V218H79H84V217V216H86H88V215.429V214.857L86.571 213.429L85.143 212H83.571H82V213V214H81H80V212V210H77H74V209.083V208.167L75.25 207.72L76.5 207.274L75.696 206.416L74.891 205.558L73.946 207.029L73 208.5L72 207L71 205.5L70.054 206.971L69.109 208.442L68.333 207.667L67.558 206.891L69.029 205.869L70.5 204.848L69.25 204.341L68 203.833V200.917V198H67H66V193V188H69.917H73.833L74.417 189.25L75 190.5L75.583 189.25L76.167 188H78H79.833L80.417 189.25L81 190.5L81.583 189.25L82.167 188H84H85.833L86.417 189.25L87 190.5L87.583 189.25L88.167 188H93.083H98V189V190H99.917H101.833L102.341 188.75L102.848 187.5L103.869 188.971L104.891 190.442L105.696 189.584L106.5 188.726L105.25 188.28L104 187.833V186V184.167L105.25 183.659L106.5 183.152L105.088 182.167L103.676 181.182L105.266 179.591L106.857 178H111.429H116V177V176H117H118V179V182H119H120V186V190H119H118V189V188H117H116V189.545V191.091L113.545 193.545L111.091 196H109.545H108V197V198H106.467H104.933L101.467 201.467L98 204.933V206.383V207.833L96.75 208.417L95.5 209L96.75 209.583L98 210.167V211.629V213.091L100.455 215.545L102.909 218H106.371H109.833L110.28 219.25L110.726 220.5L111.613 219.613L112.5 218.726L111.25 218.28L110 217.833V216.917V216H112H114V215V214H116H118V212V210H119H120V213V216H122H124V216.917V217.833L122.75 218.28L121.5 218.726L122.387 219.613L123.274 220.5L123.72 219.25L124.167 218H126H127.833L128.241 219.222L128.648 220.443L131.324 217.767L134 215.091V213.629V212.167L135.25 211.72L136.5 211.274L135.613 210.387L134.726 209.5L134.28 210.75L133.833 212H132H130.167L129.72 213.25L129.274 214.5L128.416 213.696L127.558 212.891L129.029 211.946L130.5 211L129 210L127.5 209L128.971 208.054L130.442 207.109L129.584 206.304L128.726 205.5L128.28 206.75L127.833 208H126.917H126V191V174H124H122V173V172H120H118V171V170H117H116V172ZM152 171V172H153H154V171V170H153H152V171ZM158 172V174H156.422H154.843L151 178L147.157 182H146.578H146V180.083V178.167L147.25 177.583L148.5 177L147.25 176.417L146 175.833V173.917V172H145H144V173V174H142H140V175V176H137H134V178V180H136H138V208V236H136H134V237V238H136.917H139.833L140.417 236.75L141 235.5L141.583 236.75L142.167 238H145.083H148V237V236H147H146V234.083V232.167L147.25 231.583L148.5 231L147.25 230.417L146 229.833V225V220.167L147.25 219.659L148.5 219.152L147.029 218.131L145.558 217.109L146.416 216.304L147.274 215.5L147.72 216.75L148.167 218H153H157.833L158.28 219.25L158.726 220.5L159.613 219.613L160.5 218.726L159.25 218.28L158 217.833V216.917V216H162H166V215V214H167.533H169.067L172.533 210.533L176 207.067V205.533V204H177H178V201V198H179H180V193V188H179H178V185V182H177H176V180.455V178.909L173.545 176.455L171.091 174H168.545H166V173V172H163H160V171V170H159H158V172ZM170 171V172H171H172V171V170H171H170V171ZM176 171V172H177H178V171V170H177H176V171ZM182 171V172H183H184V171V170H183H182V171ZM188 171V172H189H190V171V170H189H188V171ZM218 171V172H219H220V171V170H219H218V171ZM224 171V172H225H226V171V170H225H224V171ZM230 171V172H231H232V171V170H231H230V171ZM236 171V172H237H238V171V170H237H236V171ZM8 177V178H9H10V177V176H9H8V177ZM20 177V178H21H22V177V176H21H20V177ZM44 177V178H45H46V177V176H45H44V177ZM50 177V178H51H52V177V176H51H50V177ZM70 177V178H69H68V177V176H69H70V177ZM124 177V178H123H122V177V176H123H124V177ZM128 177V178H129H130V177V176H129H128V177ZM160 178V180H162H164V182V184H165.571H167.143L168.571 185.429L170 186.857V190.345V193.833L171.25 194.417L172.5 195L171.25 195.583L170 196.167V201V205.833L171.25 206.28L172.5 206.726L171.696 207.584L170.891 208.442L169.946 206.971L169 205.5L168 207L167 208.5L166.054 207.029L165.109 205.558L164.304 206.416L163.5 207.274L164.75 207.72L166 208.167V210.083V212H157H148V209V206H147H146V201.083V196.167L147.25 195.583L148.5 195L147.25 194.417L146 193.833V192V190.167L147.25 189.659L148.5 189.152L147.088 188.167L145.676 187.182L147.266 185.591L148.857 184L150.179 183.954L151.5 183.908L155 180L158.5 176.092L159.25 176.046L160 176V178ZM172 177V178H171H170V177V176H171H172V177ZM182 177V178H183H184V177V176H183H182V177ZM200 177V178H201H202V177V176H201H200V177ZM212 177V178H213H214V177V176H213H212V177ZM230 177V178H231H232V177V176H231H230V177ZM236 177V178H237H238V177V176H237H236V177ZM242 177V178H243H244V177V176H243H242V177ZM36 183V186H39H42V183V180H39H36V183ZM2 183V184H3H4V183V182H3H2V183ZM44 183V184H45H46V183V182H45H44V183ZM50 183V184H51H52V183V182H51H50V183ZM56 183V184H57H58V183V182H57H56V183ZM124 183V184H123H122V183V182H123H124V183ZM142 183V184H141H140V183V182H141H142V183ZM158 183V184H159H160V183V182H159H158V183ZM206 183V184H207H208V183V182H207H206V183ZM212 183V184H213H214V183V182H213H212V183ZM218 183V184H219H220V183V182H219H218V183ZM224 183V184H225H226V183V182H225H224V183ZM14 189V190H15H16V189V188H15H14V189ZM32 189V190H33H34V189V188H33H32V189ZM44 189V190H45H46V189V188H45H44V189ZM50 189V190H51H52V189V188H51H50V189ZM64 189V190H63H62V189V188H63H64V189ZM124 189V190H123H122V189V188H123H124V189ZM188 189V190H189H190V189V188H189H188V189ZM200 189V190H201H202V189V188H201H200V189ZM218 189V190H219H220V189V188H219H218V189ZM224 189V190H225H226V189V188H225H224V189ZM230 189V190H231H232V189V188H231H230V189ZM236 189V190H237H238V189V188H237H236V189ZM242 189V190H243H244V189V188H243H242V189ZM36 195V198H39H42V195V192H39H36V195ZM192 207V222H207H222V207V192H207H192V207ZM26 195V196H27H28V195V194H27H26V195ZM44 195V196H45H46V195V194H45H44V195ZM56 195V196H57H58V195V194H57H56V195ZM64 195V196H63H62V195V194H63H64V195ZM68 195V196H69H70V195V194H69H68V195ZM74 195V196H75H76V195V194H75H74V195ZM80 195V196H81H82V195V194H81H80V195ZM86 195V196H87H88V195V194H87H86V195ZM92 195V196H93H94V195V194H93H92V195ZM120 199.545V205.091L117.545 207.545L115.091 210H113.545H112V212V214H111.455H110.909L108.455 211.545L106 209.091V207.629V206.167L104.75 205.659L103.5 205.152L105 204.076L106.5 203L105.029 202.054L103.558 201.109L104.333 200.333L105.109 199.558L106.131 201.029L107.152 202.5L107.659 201.25L108.167 200L109.833 199.97L111.5 199.94L114 197L116.5 194.06L118.25 194.03L120 194V199.545ZM128 195V196H129H130V195V194H129H128V195ZM164 195V196H165H166V195V194H165H164V195ZM178 195V196H177H176V195V194H177H178V195ZM224 195V196H225H226V195V194H225H224V195ZM236 195V196H237H238V195V194H237H236V195ZM242 195V196H243H244V195V194H243H242V195ZM48 201V204H51H54V201V198H51H48V201ZM216 207V216H207H198V207V198H207H216V207ZM56 201V202H57H58V201V200H57H56V201ZM64 201V202H63H62V201V200H63H64V201ZM116 201V202H117H118V201V200H117H116V201ZM142 201V202H141H140V201V200H141H142V201ZM158 201V202H159H160V201V200H159H158V201ZM164 201V202H165H166V201V200H165H164V201ZM188 201V202H189H190V201V200H189H188V201ZM224 201V202H225H226V201V200H225H224V201ZM0 225V246H21H42V225V204H21H0V225ZM204 207V210H207H210V207V204H207H204V207ZM86 207V208H87H88V207V206H87H86V207ZM92 208V210H89H86V210.571V211.143L87.429 212.571L88.857 214H90H91.143L92.571 212.571L94 211.143V209.571V208H95H96V207V206H94H92V208ZM134 207V208H135H136V207V206H135H134V207ZM142 207V208H141H140V207V206H141H142V207ZM188 207V208H189H190V207V206H189H188V207ZM242 207V208H243H244V207V206H243H242V207ZM36 225V240H21H6V225V210H21H36V225ZM70 213V214H69H68V213V212H69H70V213ZM76 213V214H75H74V213V212H75H76V213ZM106 213V214H105H104V213V212H105H106V213ZM124 213V214H123H122V213V212H123H124V213ZM142 213V214H141H140V213V212H141H142V213ZM176 213V214H177H178V213V212H177H176V213ZM188 213V214H189H190V213V212H189H188V213ZM230 213V214H231H232V213V212H231H230V213ZM236 213V214H237H238V213V212H237H236V213ZM242 213V214H243H244V213V212H243H242V213ZM12 225V234H21H30V225V216H21H12V225ZM56 219V220H57H58V219V218H57H56V219ZM68 219V220H69H70V219V218H69H68V219ZM92 219V220H93H94V219V218H93H92V219ZM182 219V220H183H184V219V218H183H182V219ZM224 219V220H225H226V219V218H225H224V219ZM230 219V220H231H232V219V218H231H230V219ZM242 219V220H243H244V219V218H243H242V219ZM48 225V228H51H54V225V222H51H48V225ZM56 225V226H57H58V225V224H57H56V225ZM74 225V226H75H76V225V224H75H74V225ZM86 225V226H87H88V225V224H87H86V225ZM104 225V226H105H106V225V224H105H104V225ZM110 225V226H111H112V225V224H111H110V225ZM116 225V226H117H118V225V224H117H116V225ZM122 225V226H123H124V225V224H123H122V225ZM142 225V226H141H140V225V224H141H142V225ZM170 225V226H171H172V225V224H171H170V225ZM176 225V226H177H178V225V224H177H176V225ZM182 225V226H183H184V225V224H183H182V225ZM194 225V226H195H196V225V224H195H194V225ZM224 225V226H225H226V225V224H225H224V225ZM230 225V226H231H232V225V224H231H230V225ZM236 225V226H237H238V225V224H237H236V225ZM242 225V226H243H244V225V224H243H242V225ZM56 231V232H57H58V231V230H57H56V231ZM62 231V232H63H64V231V230H63H62V231ZM86 231V232H87H88V231V230H87H86V231ZM110 231V232H111H112V231V230H111H110V231ZM122 231V232H123H124V231V230H123H122V231ZM128 231V232H129H130V231V230H129H128V231ZM158 231V232H159H160V231V230H159H158V231ZM182 231V232H183H184V231V230H183H182V231ZM200 231V232H201H202V231V230H201H200V231ZM212 231V232H213H214V231V230H213H212V231ZM218 231V232H219H220V231V230H219H218V231ZM230 231V232H231H232V231V230H231H230V231ZM242 231V232H243H244V231V230H243H242V231ZM80 237V238H81H82V237V236H81H80V237ZM86 237V238H87H88V237V236H87H86V237ZM92 237V238H93H94V237V236H93H92V237ZM98 237V238H99H100V237V236H99H98V237ZM104 237V238H105H106V237V236H105H104V237ZM110 237V238H111H112V237V236H111H110V237ZM122 237V238H123H124V237V236H123H122V237ZM128 237V238H129H130V237V236H129H128V237ZM152 237V238H153H154V237V236H153H152V237ZM158 237V238H159H160V237V236H159H158V237ZM164 237V238H165H166V237V236H165H164V237ZM170 237V238H171H172V237V236H171H170V237ZM200 237V238H201H202V237V236H201H200V237ZM212 237V238H213H214V237V236H213H212V237ZM236 237V238H237H238V237V236H237H236V237ZM242 237V238H243H244V237V236H243H242V237ZM48 243V246H51H54V243V240H51H48V243ZM62 243V244H63H64V243V242H63H62V243ZM74 243V244H75H76V243V242H75H74V243ZM92 243V244H93H94V243V242H93H92V243ZM104 243V244H105H106V243V242H105H104V243ZM110 243V244H111H112V243V242H111H110V243ZM116 243V244H117H118V243V242H117H116V243ZM128 243V244H129H130V243V242H129H128V243ZM134 243V244H135H136V243V242H135H134V243ZM140 243V244H141H142V243V242H141H140V243ZM146 243V244H147H148V243V242H147H146V243ZM164 243V244H165H166V243V242H165H164V243ZM182 243V244H183H184V243V242H183H182V243ZM194 243V244H195H196V243V242H195H194V243ZM200 243V244H201H202V243V242H201H200V243ZM206 243V244H207H208V243V242H207H206V243ZM212 243V244H213H214V243V242H213H212V243ZM230 243V244H231H232V243V242H231H230V243ZM242 243V244H243H244V243V242H243H242V243Z" fill="black"/>
</svg>
