<svg width="424" height="435" viewBox="0 0 424 435" fill="none" xmlns="http://www.w3.org/2000/svg">
<path d="M124.236 398.289V403.768C124.92 402.798 125.851 402.312 127.029 402.312C128.071 402.312 128.868 402.622 129.422 403.24C129.975 403.859 130.252 404.793 130.252 406.043V412H128.514V406.023C128.514 405.236 128.348 404.656 128.016 404.285C127.684 403.908 127.179 403.719 126.502 403.719C125.538 403.719 124.783 404.139 124.236 404.979V412H122.508V398.289H124.236ZM133.289 400.213H135.037V402.508H136.834V403.797H135.037V409.568C135.037 410.376 135.372 410.779 136.043 410.779C136.251 410.779 136.466 410.74 136.688 410.662L136.912 411.844C136.6 412.085 136.16 412.205 135.594 412.205C134.865 412.205 134.298 411.987 133.895 411.551C133.491 411.115 133.289 410.454 133.289 409.568V403.797H131.785V402.508H133.289V400.213ZM139.52 400.213H141.268V402.508H143.064V403.797H141.268V409.568C141.268 410.376 141.603 410.779 142.273 410.779C142.482 410.779 142.697 410.74 142.918 410.662L143.143 411.844C142.83 412.085 142.391 412.205 141.824 412.205C141.095 412.205 140.529 411.987 140.125 411.551C139.721 411.115 139.52 410.454 139.52 409.568V403.797H138.016V402.508H139.52V400.213ZM153.309 407.83V408.016C153.309 409.402 152.977 410.512 152.312 411.346C151.655 412.173 150.75 412.586 149.598 412.586C148.445 412.586 147.557 412.195 146.932 411.414V416.062H145.203V402.898H146.531L146.805 404.129C147.436 403.191 148.348 402.723 149.539 402.723C150.737 402.723 151.665 403.185 152.322 404.109C152.98 405.027 153.309 406.268 153.309 407.83ZM151.57 408.016V407.83C151.57 406.71 151.352 405.815 150.916 405.145C150.486 404.467 149.868 404.129 149.061 404.129C148.104 404.129 147.394 404.549 146.932 405.389V409.988C147.387 410.822 148.104 411.238 149.08 411.238C149.881 411.238 150.496 410.945 150.926 410.359C151.355 409.773 151.57 408.992 151.57 408.016ZM157.01 410.398V412H155.457V410.398H157.01ZM157.01 402.703V404.305H155.457V402.703H157.01ZM165.682 399.324L160.35 413.221H158.865L164.217 399.324H165.682ZM173.162 399.324L167.83 413.221H166.346L171.697 399.324H173.162ZM178.484 410.828C179.096 410.828 179.578 410.708 179.93 410.467C180.281 410.219 180.457 409.894 180.457 409.49C180.457 409.087 180.307 408.768 180.008 408.533C179.708 408.292 179.165 408.081 178.377 407.898C177.179 407.638 176.297 407.293 175.73 406.863C175.171 406.427 174.891 405.828 174.891 405.066C174.891 404.305 175.223 403.657 175.887 403.123C176.551 402.583 177.417 402.312 178.484 402.312C179.552 402.312 180.415 402.596 181.072 403.162C181.736 403.722 182.052 404.419 182.02 405.252L182 405.301H180.35C180.35 404.865 180.171 404.487 179.812 404.168C179.461 403.849 178.995 403.689 178.416 403.689C177.843 403.689 177.4 403.82 177.088 404.08C176.775 404.334 176.619 404.66 176.619 405.057C176.619 405.454 176.756 405.757 177.029 405.965C177.303 406.173 177.84 406.362 178.641 406.531C179.865 406.798 180.763 407.156 181.336 407.605C181.909 408.048 182.195 408.637 182.195 409.373C182.195 410.219 181.854 410.903 181.17 411.424C180.493 411.945 179.581 412.205 178.436 412.205C177.29 412.205 176.362 411.906 175.652 411.307C174.949 410.708 174.614 409.982 174.646 409.129L174.666 409.08H176.316C176.349 409.666 176.567 410.109 176.971 410.408C177.381 410.701 177.892 410.848 178.504 410.848L178.484 410.828ZM190.848 407.713H190.857C190.857 406.847 190.639 406.147 190.203 405.613C189.773 405.079 189.188 404.812 188.445 404.812C187.293 404.812 186.469 405.252 185.975 406.131V407.166C185.975 408.325 186.215 409.23 186.697 409.881C187.186 410.525 187.798 410.848 188.533 410.848C189.269 410.848 189.839 410.555 190.242 409.969C190.646 409.383 190.848 408.631 190.848 407.713ZM184.266 404.559H184.256C184.256 402.924 184.705 401.596 185.604 400.574C186.508 399.552 187.651 399.041 189.031 399.041C189.962 399.041 190.753 399.217 191.404 399.568L191.033 400.896C190.402 400.564 189.734 400.398 189.031 400.398C188.113 400.398 187.374 400.763 186.814 401.492C186.255 402.215 185.975 403.172 185.975 404.363V404.568C186.775 403.872 187.732 403.523 188.846 403.523C189.965 403.523 190.867 403.914 191.551 404.695C192.241 405.477 192.586 406.512 192.586 407.801C192.586 409.083 192.221 410.138 191.492 410.965C190.77 411.792 189.783 412.205 188.533 412.205C187.29 412.205 186.268 411.743 185.467 410.818C184.666 409.894 184.266 408.621 184.266 407V404.559ZM196.385 410.223V412H194.656V410.223H196.385ZM200.555 402.488L202.547 405.994L204.568 402.488H206.59L203.504 407.195L206.678 412H204.695L202.586 408.406L200.477 412H198.465L201.639 407.195L198.553 402.488H200.555ZM209.07 416.268C208.823 416.268 208.481 416.222 208.045 416.131L208.221 414.764C208.65 414.796 208.908 414.812 208.992 414.812C209.331 414.812 209.614 414.669 209.842 414.383C210.076 414.096 210.288 413.712 210.477 413.23L210.887 412.234L207.352 402.918H209.285L211.307 408.904L211.609 410.096H211.668L214.002 402.918H215.926L211.932 413.885C211.326 415.473 210.372 416.268 209.07 416.268ZM224.578 410.643V412H217.02V410.789L222.156 403.865H217.078V402.488H224.275V403.67L219.08 410.643H224.578ZM232.205 399.324L226.873 413.221H225.389L230.74 399.324H232.205ZM239.822 406.092C239.822 405.376 239.637 404.799 239.266 404.363C238.895 403.921 238.361 403.699 237.664 403.699C237.091 403.699 236.596 403.94 236.18 404.422C235.77 404.904 235.516 405.519 235.418 406.268L235.438 406.316H239.822V406.092ZM237.928 412.205C236.606 412.205 235.551 411.769 234.764 410.896C233.982 410.024 233.592 408.875 233.592 407.449V407.059C233.592 405.724 233.989 404.604 234.783 403.699C235.584 402.788 236.544 402.332 237.664 402.332C238.927 402.332 239.891 402.713 240.555 403.475C241.225 404.23 241.561 405.268 241.561 406.59V407.674H235.389L235.359 407.713C235.379 408.65 235.613 409.409 236.062 409.988C236.518 410.561 237.14 410.848 237.928 410.848C239.035 410.848 239.933 410.535 240.623 409.91L241.307 411.033H241.297C240.503 411.814 239.38 412.205 237.928 412.205ZM246.229 412.205C245.239 412.205 244.484 411.954 243.963 411.453C243.442 410.952 243.182 410.249 243.182 409.344C243.182 408.439 243.546 407.729 244.275 407.215C245.005 406.701 246.007 406.443 247.283 406.443H249.158V405.506C249.158 404.946 248.986 404.507 248.641 404.188C248.302 403.862 247.84 403.699 247.254 403.699C246.674 403.699 246.209 403.839 245.857 404.119C245.506 404.393 245.33 404.734 245.33 405.145H243.68L243.66 405.096C243.628 404.38 243.96 403.742 244.656 403.182C245.359 402.615 246.251 402.332 247.332 402.332C248.419 402.332 249.285 402.612 249.93 403.172C250.574 403.725 250.896 404.51 250.896 405.525V410.105C250.896 410.841 250.978 411.479 251.141 412.02H249.354C249.23 411.414 249.165 410.939 249.158 410.594C248.82 411.076 248.39 411.466 247.869 411.766C247.355 412.059 246.808 412.205 246.229 412.205ZM244.93 409.383H244.92C244.92 409.812 245.053 410.148 245.32 410.389C245.587 410.63 246.001 410.75 246.561 410.75C247.12 410.75 247.654 410.594 248.162 410.281C248.676 409.962 249.012 409.591 249.168 409.168V407.615H247.234C246.544 407.615 245.988 407.788 245.564 408.133C245.141 408.471 244.93 408.888 244.93 409.383ZM261.531 407.83V408.016C261.531 409.402 261.199 410.512 260.535 411.346C259.878 412.173 258.973 412.586 257.82 412.586C256.668 412.586 255.779 412.195 255.154 411.414V416.062H253.426V402.898H254.754L255.027 404.129C255.659 403.191 256.57 402.723 257.762 402.723C258.96 402.723 259.887 403.185 260.545 404.109C261.202 405.027 261.531 406.268 261.531 407.83ZM259.793 408.016V407.83C259.793 406.71 259.575 405.815 259.139 405.145C258.709 404.467 258.09 404.129 257.283 404.129C256.326 404.129 255.617 404.549 255.154 405.389V409.988C255.61 410.822 256.326 411.238 257.303 411.238C258.104 411.238 258.719 410.945 259.148 410.359C259.578 409.773 259.793 408.992 259.793 408.016ZM265.545 410.223V412H263.816V410.223H265.545ZM269.822 407.449C269.822 408.471 270.011 409.279 270.389 409.871C270.799 410.522 271.453 410.848 272.352 410.848C272.938 410.848 273.445 410.669 273.875 410.311C274.305 409.952 274.52 409.52 274.52 409.012H276.072L276.092 409.07C276.124 409.897 275.763 410.626 275.008 411.258C274.253 411.889 273.367 412.205 272.352 412.205C270.997 412.205 269.946 411.766 269.197 410.887C268.449 410.008 268.074 408.862 268.074 407.449V407.078C268.074 405.672 268.449 404.529 269.197 403.65C269.952 402.771 271.004 402.332 272.352 402.332C273.458 402.332 274.367 402.658 275.076 403.309C275.786 403.96 276.128 404.77 276.102 405.74L276.082 405.789H274.52C274.52 405.203 274.314 404.708 273.904 404.305C273.494 403.901 272.983 403.699 272.371 403.699C271.766 403.699 271.268 403.852 270.877 404.158C270.493 404.464 270.219 404.861 270.057 405.35C269.9 405.838 269.822 406.414 269.822 407.078V407.449ZM279.363 407.176V407.371C279.363 408.426 279.578 409.269 280.008 409.9C280.444 410.532 281.069 410.848 281.883 410.848C282.697 410.848 283.322 410.532 283.758 409.9C284.194 409.262 284.412 408.419 284.412 407.371V407.176C284.412 406.141 284.191 405.304 283.748 404.666C283.312 404.021 282.687 403.699 281.873 403.699C281.066 403.699 280.444 404.021 280.008 404.666C279.578 405.304 279.363 406.141 279.363 407.176ZM277.625 407.371V407.176C277.625 405.743 278.009 404.578 278.777 403.68C279.546 402.781 280.581 402.332 281.883 402.332C283.185 402.332 284.22 402.781 284.988 403.68C285.757 404.572 286.141 405.737 286.141 407.176V407.371C286.141 408.816 285.757 409.985 284.988 410.877C284.227 411.762 283.191 412.205 281.883 412.205C280.581 412.205 279.546 411.759 278.777 410.867C278.009 409.975 277.625 408.81 277.625 407.371ZM289.998 412H288.279V402.488H289.822L289.949 403.738C290.6 402.788 291.564 402.312 292.84 402.312C294.122 402.312 294.992 402.898 295.447 404.07C296.105 402.898 297.075 402.312 298.357 402.312C299.354 402.312 300.125 402.651 300.672 403.328C301.219 403.999 301.492 404.995 301.492 406.316V412H299.764V406.297C299.764 405.379 299.607 404.721 299.295 404.324C298.982 403.921 298.514 403.719 297.889 403.719C297.27 403.719 296.775 403.921 296.404 404.324C296.04 404.721 295.825 405.242 295.76 405.887V412H294.012V406.297C294.012 405.411 293.849 404.76 293.523 404.344C293.204 403.927 292.726 403.719 292.088 403.719C291.085 403.719 290.389 404.132 289.998 404.959V412Z" fill="black"/>
<path d="M151.18 38.2789C151.18 35.7029 150.491 33.5623 149.112 31.8571C147.769 30.1156 145.865 28.7913 143.398 27.8843C142.708 27.6303 142.037 27.3945 141.384 27.1768C140.767 26.9591 140.15 26.7596 139.534 26.5782C138.917 26.3605 138.282 26.1428 137.629 25.9251C137.012 25.7074 136.341 25.4534 135.615 25.1632C133.765 24.4739 132.259 23.5487 131.098 22.3877C129.937 21.2267 129.357 19.6847 129.357 17.7618C129.357 16.5283 129.556 15.4398 129.955 14.4965C130.391 13.5169 130.971 12.7006 131.697 12.0475C132.459 11.3945 133.33 10.9047 134.309 10.5781C135.325 10.2516 136.395 10.0883 137.52 10.0883C138.935 10.0883 140.223 10.3786 141.384 10.9591C142.545 11.5396 143.579 12.3015 144.486 13.2448C145.393 14.1518 146.191 15.204 146.881 16.4013C147.57 17.5623 148.132 18.7414 148.568 19.9387H149.166V9.87064H148.568C148.277 10.306 147.951 10.7414 147.588 11.1768C147.262 11.6121 147.044 11.8298 146.935 11.8298C146.899 11.8298 146.681 11.7028 146.282 11.4489C145.919 11.1586 145.357 10.8502 144.595 10.5237C143.869 10.1972 142.926 9.90692 141.765 9.65295C140.604 9.3627 139.207 9.21758 137.574 9.21758C135.833 9.21758 134.164 9.45341 132.568 9.92506C131.008 10.3604 129.629 11.0498 128.432 11.9931C127.234 12.9364 126.273 14.1155 125.547 15.5305C124.858 16.9455 124.513 18.6326 124.513 20.5918C124.513 21.7528 124.713 22.8593 125.112 23.9115C125.511 24.9274 126.037 25.8707 126.69 26.7414C127.343 27.5759 128.105 28.3197 128.976 28.9727C129.847 29.5895 130.754 30.0793 131.697 30.4421C132.531 30.7687 133.239 31.0408 133.819 31.2585C134.436 31.4399 135.017 31.6394 135.561 31.8571C136.141 32.0385 136.758 32.238 137.411 32.4557C138.064 32.6734 138.826 32.9455 139.697 33.2721C140.568 33.5986 141.384 33.9614 142.146 34.3605C142.908 34.7596 143.561 35.2494 144.105 35.8299C144.686 36.3741 145.139 37.0272 145.466 37.7891C145.792 38.551 145.955 39.4399 145.955 40.4558C145.955 42.9592 145.121 44.9546 143.452 46.4422C141.783 47.8934 139.606 48.619 136.921 48.619C135.978 48.619 134.998 48.4558 133.983 48.1292C132.967 47.8027 132.15 47.4762 131.534 47.1497C130.917 46.8231 130.264 46.3515 129.574 45.7347C128.921 45.1179 128.286 44.4104 127.67 43.6122C127.089 42.7778 126.545 41.907 126.037 41C125.529 40.0567 125.112 39.0952 124.785 38.1156H124.241L124.404 48.9456H124.894C125.184 48.5465 125.511 48.1292 125.874 47.6939C126.237 47.2585 126.472 47.0408 126.581 47.0408C126.69 47.0408 126.944 47.1678 127.343 47.4218C127.779 47.6757 128.413 47.966 129.248 48.2925C130.082 48.5828 131.135 48.8367 132.404 49.0544C133.674 49.2721 135.198 49.381 136.976 49.381C139.044 49.381 140.949 49.1451 142.69 48.6735C144.432 48.2018 145.919 47.4762 147.153 46.4966C148.423 45.517 149.402 44.3379 150.091 42.9592C150.817 41.5805 151.18 40.0204 151.18 38.2789ZM171.146 23.2584H161.078V18.5237H160.643L152.752 25.9795V26.5782H156.724C156.724 28.9727 156.706 31.712 156.67 34.7959C156.634 37.8435 156.616 41.0725 156.616 44.483C156.616 45.0635 156.779 45.644 157.105 46.2245C157.468 46.7687 157.922 47.2766 158.466 47.7483C159.01 48.1837 159.627 48.5283 160.316 48.7823C161.042 49 161.786 49.1088 162.547 49.1088C163.708 49.1088 164.706 48.9819 165.541 48.7279C166.411 48.4376 167.155 48.0567 167.772 47.585C168.425 47.0771 168.933 46.5329 169.296 45.9524C169.695 45.3356 170.003 44.7551 170.221 44.2109L169.894 44.0476C169.387 44.7732 168.788 45.3175 168.099 45.6803C167.409 46.0068 166.538 46.1701 165.486 46.1701C164.216 46.1701 163.182 45.7528 162.384 44.9184C161.586 44.0839 161.187 42.7415 161.187 40.8911V26.5782H169.459L171.146 23.2584ZM195.507 47.6395V47.3129C195.072 47.1315 194.527 46.8957 193.874 46.6054C193.258 46.3152 192.786 46.0794 192.459 45.898C192.205 45.7165 192.042 45.5533 191.97 45.4082C191.933 45.263 191.915 45.0453 191.915 44.7551V23.2584H182.772V23.8571C183.57 23.9296 184.332 24.0203 185.058 24.1292C185.82 24.238 186.419 24.3832 186.854 24.5646C187.072 24.8548 187.217 25.2902 187.289 25.8707C187.362 26.4149 187.398 26.8684 187.398 27.2312V42.7415C187.072 43.1769 186.709 43.5941 186.31 43.9932C185.947 44.3923 185.53 44.7551 185.058 45.0816C184.623 45.3719 184.115 45.6258 183.534 45.8435C182.99 46.0249 182.337 46.1156 181.575 46.1156C179.579 46.1156 178.219 45.5533 177.493 44.4286C176.768 43.2676 176.405 41.4898 176.405 39.0952V23.2584H167.969V23.8571C168.296 23.8934 168.641 23.9296 169.003 23.9659C169.366 23.9659 169.711 24.0022 170.038 24.0748C170.364 24.1473 170.654 24.2562 170.908 24.4013C171.199 24.5464 171.416 24.7822 171.561 25.1088C171.634 25.2176 171.67 25.399 171.67 25.653C171.706 25.8707 171.743 26.1247 171.779 26.4149C171.815 26.6689 171.833 26.9228 171.833 27.1768C171.833 27.4308 171.833 27.6303 171.833 27.7755V41.0544C171.833 43.7029 172.378 45.7165 173.466 47.0952C174.591 48.4739 176.314 49.1633 178.636 49.1633C179.652 49.1633 180.595 49 181.466 48.6735C182.373 48.3469 183.189 47.9116 183.915 47.3673C184.641 46.7868 185.294 46.1519 185.874 45.4626C186.455 44.7732 186.945 44.1202 187.344 43.5034L187.398 43.5578V49.0544H187.779L195.507 47.6395ZM223.744 46.8775V46.4966C223.054 46.2063 222.311 45.898 221.512 45.5714C220.714 45.2449 220.17 44.9909 219.88 44.8095V9.48969H219.444L210.791 11.8843V12.2108L215.254 13.8979C215.254 14.297 215.254 14.9319 215.254 15.8026C215.254 16.6371 215.254 17.5441 215.254 18.5237C215.254 19.5033 215.254 20.4648 215.254 21.4081C215.29 22.3514 215.326 23.0952 215.363 23.6394C214.564 23.3854 213.676 23.1677 212.696 22.9863C211.753 22.8049 210.737 22.7142 209.648 22.7142C207.58 22.7142 205.694 23.0589 203.988 23.7482C202.283 24.4376 200.814 25.399 199.58 26.6326C198.383 27.8299 197.44 29.2448 196.75 30.8775C196.097 32.5102 195.771 34.2698 195.771 36.1564C195.771 38.2607 196.061 40.1292 196.642 41.7619C197.222 43.3583 198.002 44.7188 198.982 45.8435C199.961 46.932 201.068 47.7483 202.301 48.2925C203.571 48.8005 204.877 49.0544 206.22 49.0544C208.36 49.0544 210.138 48.619 211.553 47.7483C213.004 46.8775 214.256 45.5351 215.308 43.7211H215.363V49.1633H215.689L223.744 46.8775ZM215.308 41.653C215.018 43.2131 214.329 44.5011 213.24 45.517C212.188 46.5329 210.918 47.0408 209.431 47.0408C208.016 47.0408 206.764 46.7143 205.676 46.0612C204.623 45.4082 203.734 44.5555 203.009 43.5034C202.283 42.4149 201.739 41.1814 201.376 39.8027C201.013 38.3877 200.832 36.9365 200.832 35.4489C200.832 33.9614 200.977 32.5102 201.267 31.0952C201.594 29.6802 202.084 28.4285 202.737 27.3401C203.39 26.2516 204.206 25.3809 205.186 24.7278C206.202 24.0748 207.417 23.7482 208.832 23.7482C209.884 23.7482 211.027 24.2017 212.261 25.1088C213.494 26.0158 214.51 27.2131 215.308 28.7006V41.653ZM232.359 14.1155C232.359 13.2811 232.069 12.5917 231.488 12.0475C230.944 11.5033 230.255 11.2312 229.42 11.2312C228.586 11.2312 227.878 11.5033 227.298 12.0475C226.754 12.5917 226.481 13.2811 226.481 14.1155C226.481 14.9137 226.772 15.6031 227.352 16.1836C227.933 16.7641 228.622 17.0543 229.42 17.0543C230.255 17.0543 230.944 16.7822 231.488 16.238C232.069 15.6575 232.359 14.95 232.359 14.1155ZM235.407 49V48.4558C235.044 48.3832 234.663 48.3469 234.264 48.3469C233.901 48.3107 233.556 48.2562 233.23 48.1837C232.903 48.1111 232.613 48.0023 232.359 47.8571C232.141 47.6757 231.996 47.4036 231.924 47.0408V22.7142H231.597L224.25 25.1088V25.4353C224.758 25.6167 225.23 25.8163 225.665 26.0339C226.137 26.2516 226.536 26.4693 226.862 26.687C227.116 26.8684 227.262 27.068 227.298 27.2857C227.37 27.5033 227.407 27.7573 227.407 28.0476V46.7143C227.407 47.0408 227.28 47.3129 227.026 47.5306C226.808 47.7483 226.518 47.9297 226.155 48.0748C225.828 48.1837 225.447 48.2744 225.012 48.3469C224.577 48.3832 224.141 48.4195 223.706 48.4558V49H235.407ZM261.601 35.6666C261.601 33.4898 261.202 31.6031 260.404 30.0068C259.642 28.3741 258.644 27.0317 257.41 25.9795C256.213 24.8911 254.871 24.0748 253.383 23.5305C251.896 22.9863 250.426 22.7142 248.975 22.7142C247.016 22.7142 245.22 23.077 243.587 23.8027C241.991 24.5283 240.612 25.4897 239.451 26.687C238.326 27.8843 237.437 29.263 236.784 30.8231C236.168 32.3832 235.859 33.9977 235.859 35.6666C235.859 37.9886 236.258 40.0204 237.057 41.7619C237.891 43.4671 238.943 44.8821 240.213 46.0068C241.519 47.0952 242.934 47.8934 244.458 48.4014C245.982 48.9093 247.451 49.1633 248.866 49.1633C250.571 49.1633 252.186 48.8186 253.71 48.1292C255.27 47.4399 256.63 46.4785 257.791 45.2449C258.952 44.0113 259.877 42.5782 260.567 40.9456C261.256 39.2766 261.601 37.517 261.601 35.6666ZM256.54 35.6122C256.54 36.8821 256.394 38.2607 256.104 39.7483C255.85 41.2358 255.415 42.6326 254.798 43.9388C254.218 45.2086 253.438 46.2789 252.458 47.1497C251.515 47.9841 250.335 48.4014 248.921 48.4014C247.506 48.4014 246.29 48.0748 245.274 47.4218C244.258 46.7324 243.424 45.8254 242.771 44.7007C242.118 43.5397 241.646 42.2154 241.356 40.7279C241.066 39.2403 240.92 37.6621 240.92 35.9932C240.92 34.4693 241.084 32.9818 241.41 31.5306C241.773 30.043 242.281 28.7188 242.934 27.5578C243.623 26.3605 244.44 25.399 245.383 24.6734C246.326 23.9478 247.397 23.585 248.594 23.585C250.082 23.585 251.333 23.9841 252.349 24.7822C253.365 25.5442 254.181 26.5237 254.798 27.721C255.415 28.9183 255.85 30.2244 256.104 31.6394C256.394 33.0544 256.54 34.3786 256.54 35.6122ZM287.405 36.102C287.405 34.5056 287.115 33.0181 286.534 31.6394C285.954 30.2244 285.138 28.9909 284.085 27.9387C283.033 26.8866 281.763 26.0702 280.276 25.4897C278.825 24.8729 277.192 24.5646 275.378 24.5646C274.543 24.5646 273.836 24.619 273.255 24.7278C272.711 24.8004 272.131 24.9274 271.514 25.1088C272.493 23.1859 273.582 21.4444 274.779 19.8843C276.013 18.2879 277.319 16.8729 278.698 15.6394C280.076 14.3695 281.473 13.2811 282.888 12.374C284.339 11.4307 285.772 10.6507 287.187 10.0339L286.752 9.38084C285.047 9.8525 283.269 10.5237 281.419 11.3945C279.568 12.2652 277.736 13.2992 275.922 14.4965C274.108 15.6938 272.385 17.0725 270.752 18.6326C269.119 20.1564 267.668 21.8072 266.398 23.585C265.165 25.3627 264.185 27.2494 263.459 29.2448C262.734 31.2403 262.371 33.3265 262.371 35.5034C262.371 37.2811 262.698 39.0045 263.351 40.6734C264.004 42.3061 264.893 43.7574 266.017 45.0272C267.142 46.2608 268.448 47.2404 269.936 47.966C271.459 48.6553 273.056 49 274.725 49C276.611 49 278.335 48.6735 279.895 48.0204C281.455 47.3311 282.779 46.3877 283.868 45.1905C284.992 43.9932 285.863 42.6145 286.48 41.0544C287.097 39.4943 287.405 37.8435 287.405 36.102ZM282.453 38.3333C282.453 41.6349 281.745 44.1202 280.33 45.7891C278.915 47.4218 277.101 48.2381 274.888 48.2381C272.566 48.2381 270.716 47.3492 269.337 45.5714C267.995 43.7574 267.323 41.2177 267.323 37.9524C267.323 35.9932 267.577 34.034 268.085 32.0748C268.593 30.0793 269.555 28.3015 270.97 26.7414C271.369 26.3061 271.822 26.0158 272.33 25.8707C272.838 25.6893 273.401 25.5986 274.017 25.5986C275.505 25.5986 276.775 25.9977 277.827 26.7959C278.915 27.5578 279.786 28.5555 280.439 29.7891C281.128 30.9863 281.636 32.3469 281.963 33.8707C282.289 35.3582 282.453 36.8458 282.453 38.3333ZM296.936 46.0612C296.936 45.1179 296.646 44.3197 296.065 43.6667C295.485 42.9773 294.723 42.6326 293.779 42.6326C292.836 42.6326 292.056 42.9592 291.439 43.6122C290.823 44.229 290.514 45.0091 290.514 45.9524C290.514 46.8957 290.823 47.6576 291.439 48.2381C292.056 48.7823 292.836 49.0544 293.779 49.0544C294.723 49.0544 295.485 48.8005 296.065 48.2925C296.646 47.7483 296.936 47.0045 296.936 46.0612Z" fill="black"/>
<path fill-rule="evenodd" clip-rule="evenodd" d="M89 130V151H110H131V130V109H110H89V130ZM293 130V151H314H335V130V109H314H293V130ZM145 112V113H146H147V112V111H146H145V112ZM157 112V113H155H153V114V115H149.429H145.857L144.429 116.429L143 117.857V119.429V121H140H137V124V127H140H143V126V125H144.779H146.558L148 123L149.442 121H151.853H154.265L156.267 118.75L158.269 116.5L158.718 117.75L159.167 119H161H162.833L163.341 117.75L163.848 116.5L165 118L166.152 119.5L166.659 118.25L167.167 117H171H174.833L175.341 118.25L175.848 119.5L177 118L178.152 116.5L178.659 117.75L179.167 119H185.083H191V120V121H194H197V122V123H199H201V124V125H202.917H204.833L205.28 123.75L205.726 122.5L206.584 123.304L207.442 124.109L206.059 124.964L204.676 125.818L206.266 127.409L207.857 129H209.027H210.198L213 132L215.802 135H217.401H219V136.599V138.198L222 141L225 143.802V144.401V145H223H221V148V151H224H227V148V145H230H233V147.917V150.833L231.759 151.247L230.518 151.661L232.35 153.493L234.182 155.324L235.036 153.941L235.891 152.558L236.696 153.416L237.5 154.274L236.25 154.72L235 155.167V156.682V158.198L231.813 161.174L228.627 164.151L230.034 165.021L231.442 165.891L230.584 166.696L229.726 167.5L229.28 166.25L228.833 165H227.318H225.802L223 168L220.198 171H218.599H217V172.548V174.097L210 181L203 187.903V189.084V190.265L200.782 192.189L198.564 194.113L200.003 195.002L201.442 195.891L200.667 196.667L199.891 197.442L198.946 195.971L198 194.5L197 196L196 197.5L195.054 196.029L194.109 194.558L193.304 195.416L192.5 196.274L193.75 196.72L195 197.167V200.083V203H193H191V205V207H189H187V209.917V212.833L188.25 213.28L189.5 213.726L188.613 214.613L187.726 215.5L187.28 214.25L186.833 213H185.917H185V215V217H184H183V216V215H179H175V214V213H173.083H171.167L170.72 214.25L170.274 215.5L169.387 214.613L168.5 213.726L169.75 213.28L171 212.833V211.917V211H168H165V209V207H164H163V208V209H160.221H157.442L156 207L154.558 205H152.779H151V204V203H148H145V201V199H143H141V197V195H139H137V194V193H135H133V192.083V191.167L134.25 190.72L135.5 190.274L134.756 189.477L134.013 188.679L132.139 190.84L130.265 193H127.633H125V190V187H128H131V184V181H128H125V179V177H124.083H123.167L122.72 178.25L122.274 179.5L121.387 178.613L120.5 177.726L121.75 177.28L123 176.833V175V173.167L121.75 172.583L120.5 172L121.75 171.417L123 170.833V166.917V163H118H113V160V157H110H107V160V163H101H95V160V157H92H89V160V163H91H93V165.917V168.833L91.75 169.341L90.5 169.848L92 171L93.5 172.152L92.25 172.659L91 173.167V182.083V191H92H93V192.917V194.833L91.75 195.282L90.5 195.731L92.75 197.733L95 199.735V201.367V203H95.917H96.833L97.28 201.75L97.726 200.5L98.613 201.387L99.5 202.274L98.25 202.72L97 203.167V205.863V208.558L99 210L101 211.442V212.853V214.265L103.218 216.189L105.436 218.113L103.997 219.002L102.558 219.891L103.333 220.667L104.109 221.442L105.054 219.971L106 218.5L107 220L108 221.5L108.946 220.029L109.891 218.558L110.667 219.333L111.442 220.109L110.05 220.969L108.659 221.829L113 226L117.341 230.171L115.95 231.031L114.558 231.891L115.416 232.696L116.274 233.5L116.72 232.25L117.167 231H120.083H123V233V235H127H131V237V239H132H133V238V237H134H135V239V241H138H141V242V243H144H147V244V245H150H153V246V247H155H157V248V249H161H165V250V251H167H169V250V249H170H171V251.917V254.833L169.75 255.417L168.5 256L169.75 256.583L171 257.167V262.083V267H170H169V271V275H170H171V279.917V284.833L169.75 285.282L168.5 285.731L170.75 287.733L173 289.735V293.367V297H174H175V298.917V300.833L176.25 301.341L177.5 301.848L176.032 302.868L174.564 303.887L176.782 305.811L179 307.735V309V310.265L181.25 312.267L183.5 314.269L182.25 314.718L181 315.167V316.083V317H182.571H184.143L185.571 318.429L187 319.857V320.974V322.091L189.455 324.545L191.909 327H193.455H195V328.526V330.053L199.474 334.526L203.947 339H205.474H207V339.571V340.143L205.571 341.571L204.143 343H202.571H201V344V345H199.083H197.167L196.659 346.25L196.152 347.5L195.132 346.032L194.113 344.564L192.189 346.782L190.265 349H185H179.735L177.733 351.25L175.731 353.5L175.282 352.25L174.833 351H173H171.167L170.583 352.25L170 353.5L169.417 352.25L168.833 351H165.917H163V350V349H158H153V348V347H149H145V346V345H144H143V347V349H140H137V352V355H139.779H142.558L144 353L145.442 351H146.221H147V353V355H169H191V354V353H196.917H202.833L203.341 351.75L203.848 350.5L205 352L206.152 353.5L206.659 352.25L207.167 351H209.083H211V350V349H214H217V348V347H219H221V348V349H223H225V349.917V350.833L223.75 351.28L222.5 351.726L223.387 352.613L224.274 353.5L224.72 352.25L225.167 351H227H228.833L229.341 352.25L229.848 353.5L231 352L232.152 350.5L232.659 351.75L233.167 353H237H240.833L241.417 351.75L242 350.5L242.583 351.75L243.167 353H245H246.833L247.417 351.75L248 350.5L248.583 351.75L249.167 353H254H258.833L259.417 351.75L260 350.5L260.583 351.75L261.167 353H263H264.833L265.417 351.75L266 350.5L266.583 351.75L267.167 353H270.083H273V352V351H276H279V350V349H282H285V348.083V347.167L283.75 346.72L282.5 346.274L283.387 345.387L284.274 344.5L284.72 345.75L285.167 347H287.863H290.558L292 345L293.442 343H294.853H296.265L298.267 340.75L300.269 338.5L300.718 339.75L301.167 341H302.083H303V339.474V337.947L307.474 333.474L311.947 329H313.474H315V327.429V325.857L316.429 324.429L317.857 323H319.429H321V322.083V321.167L319.75 320.718L318.5 320.269L320.75 318.267L323 316.265V314.633V313H324H325V311V309H326H327V307V305H328H329V302V299H331H333V298V297H332H331V294V291H332H333V286.083V281.167L331.75 280.718L330.5 280.269L332.75 278.267L335 276.265V274V271.735L332.75 269.733L330.5 267.731L331.75 267.282L333 266.833V265V263.167L331.75 262.583L330.5 262L331.75 261.417L333 260.833V258.917V257H332H331V254V251H330H329V249.221V247.442L327 246L325 244.558V241.863V239.167L326.25 238.72L327.5 238.274L326.613 237.387L325.726 236.5L325.28 237.75L324.833 239H323.917H323V237V235H322H321V233V231H319H317V229.455V227.909L314.545 225.455L312.091 223H310.947H309.802L307 220L304.198 217H302.82H301.442L300 215L298.558 213H296.779H295V212V211H292H289V210.083V209.167L290.25 208.72L291.5 208.274L290.613 207.387L289.726 206.5L289.28 207.75L288.833 209H285.917H283V208V207H281.083H279.167L278.72 208.25L278.274 209.5L277.387 208.613L276.5 207.726L277.75 207.28L279 206.833V205.917V205H273H267V204V203H261.083H255.167L254.583 201.75L254 200.5L253.417 201.75L252.833 203H247.917H243V204V205H238.367H233.735L231.861 207.16L229.987 209.321L229.244 208.523L228.5 207.726L229.75 207.28L231 206.833V204.917V203H232H233V201V199H234H235V197.401V195.802L238 193L241 190.198V188.82V187.442L243 186L245 184.558V183.18V181.802L248 179L251 176.198V175.086V173.974L260.487 164.487L269.974 155H271.487H273V153V151H274H275V148V145H278H281V148V151H284H287V148V145H285H283V143V141H285H287V134V127H285H283V128V129H281H279V130V131H277H275V132V133H273H271V133.917V134.833L272.25 135.28L273.5 135.726L272.613 136.613L271.726 137.5L271.28 136.25L270.833 135H269.137H267.442L266 137L264.558 139H262.779H261V141V143H260.083H259.167L258.753 141.759L258.339 140.518L256.429 142.429L254.518 144.339L255.759 144.753L257 145.167V148.083V151H254H251V148V145H250H249V132.429V119.857L247.571 118.429L246.143 117H244.571H243V118.917V120.833L241.75 121.341L240.5 121.848L241.971 122.869L243.442 123.891L242.667 124.667L241.891 125.442L240.946 123.971L240 122.5L239 124L238 125.5L237.054 124.029L236.109 122.558L235.304 123.416L234.5 124.274L235.75 124.72L237 125.167V126.083V127H234H231V125V123H230.083H229.167L228.659 124.25L228.152 125.5L227 124L225.848 122.5L225.341 123.75L224.833 125H223.917H223V123V121H221H219V120V119H216H213V118V117H210.083H207.167L206.72 118.25L206.274 119.5L205.387 118.613L204.5 117.726L205.75 117.28L207 116.833V115.917V115H202.367H197.735L195.733 112.75L193.731 110.5L193.282 111.75L192.833 113H185H177.167L176.583 111.75L176 110.5L175.417 111.75L174.833 113H170H165.167L164.583 111.75L164 110.5L163.417 111.75L162.833 113H160.917H159V112V111H158H157V112ZM217 112V113H218H219V112V111H218H217V112ZM223 112V113H224H225V112V111H224H223V112ZM235 112V113H236H237V112V111H236H235V112ZM241 112V113H242H243V112V111H242H241V112ZM253 112V113H254H255V112V111H254H253V112ZM259 112V113H260H261V112V111H260H259V112ZM271 112V113H272H273V112V111H272H271V112ZM283 112V113H284H285V112V111H284H283V112ZM125 130V145H110H95V130V115H110H125V130ZM329 130V145H314H299V130V115H314H329V130ZM153 118V119H152H151V118V117H152H153V118ZM195 118V119H194H193V118V117H194H195V118ZM229 118V119H230H231V118V117H230H229V118ZM253 118V119H254H255V118V117H254H253V118ZM265 118V119H266H267V118V117H266H265V118ZM277 118V119H278H279V118V117H278H277V118ZM101 130V139H110H119V130V121H110H101V130ZM305 130V139H314H323V130V121H314H305V130ZM151 124V125H152H153V124V123H152H151V124ZM157 124V125H158H159V124V123H158H157V124ZM169 124V125H170H171V124V123H170H169V124ZM175 124V125H176H177V124V123H176H175V124ZM181 124V125H182H183V124V123H182H181V124ZM259 124V125H260H261V124V123H260H259V124ZM265 124V125H266H267V124V123H266H265V124ZM271 124V125H272H273V124V123H272H271V124ZM283 124V125H284H285V124V123H284H283V124ZM145 130V131H146H147V130V129H146H145V130ZM151 130V131H152H153V130V129H152H151V130ZM175 130V131H176H177V130V129H176H175V130ZM181 130V131H182H183V130V129H182H181V130ZM187 130V131H188H189V130V129H188H187V130ZM193 130V131H194H195V130V129H194H193V130ZM219 130V131H218H217V130V129H218H219V130ZM231 130V131H230H229V130V129H230H231V130ZM237 130V131H236H235V130V129H236H237V130ZM243 130V131H242H241V130V129H242H243V130ZM253 130V131H254H255V130V129H254H253V130ZM265 130V131H266H267V130V129H266H265V130ZM271 130V131H272H273V130V129H272H271V130ZM137 142V151H140H143V142V133H140H137V142ZM151 136V137H152H153V136V135H152H151V136ZM157 136V137H158H159V136V135H158H157V136ZM175 136V137H176H177V136V135H176H175V136ZM181 136V137H182H183V136V135H182H181V136ZM205 136V137H206H207V136V135H206H205V136ZM259 136V137H260H261V136V135H260H259V136ZM285 136V137H284H283V136V135H284H285V136ZM169 142V143H170H171V142V141H170H169V142ZM175 142V143H176H177V142V141H176H175V142ZM187 142V143H188H189V142V141H188H187V142ZM193 142V143H194H195V142V141H194H193V142ZM199 142V143H200H201V142V141H200H199V142ZM205 142V143H206H207V142V141H206H205V142ZM243 142V143H242H241V142V141H242H243V142ZM273 142V143H272H271V142V141H272H273V142ZM149 148V151H152H155V148V145H152H149V148ZM161 148V151H164H167V148V145H164H161V148ZM173 148V151H176H179V148V145H176H173V148ZM185 148V151H188H191V148V145H188H185V148ZM197 148V151H200H203V148V145H200H197V148ZM209 148V151H212H215V148V145H212H209V148ZM245 148V151H242H239V148V145H242H245V148ZM269 148V151H266H263V148V145H266H269V148ZM145 154V155H146H147V154V153H146H145V154ZM151 154V155H152H153V154V153H152H151V154ZM157 154V155H158H159V154V153H158H157V154ZM165.25 157.549L161 161.953V163.477V165H159H157V166V167H158H159V169V171H158H157V172V173H159H161V175V177H163H165V178V179H164H163V180V181H165H167V182V183H169H171V184V185H172.917H174.833L175.417 183.75L176 182.5L176.583 183.75L177.167 185H179.61H182.053L186.526 180.526L191 176.053V174.526V173H193H195V172V171H194H193V168V165H192H191V163.467V161.933L187.533 158.467L184.067 155H182.533H181V154V153L175.25 153.072L169.5 153.145L165.25 157.549ZM187 154V155H188H189V154V153H188H187V154ZM193 154V155H194H195V154V153H194H193V154ZM199 154V155H200H201V154V153H200H199V154ZM205 154V155H206H207V154V153H206H205V154ZM217 154V155H218H219V154V153H218H217V154ZM243 154V155H242H241V154V153H242H243V154ZM249 154V155H248H247V154V153H248H249V154ZM283 154V155H284H285V154V153H284H283V154ZM125 160V163H128H131V160V157H128H125V160ZM137 160V163H140H143V160V157H140H137V160ZM287 160V163H290H293V160V157H290H287V160ZM299 160V163H305H311V160V157H305H299V160ZM317 160V163H320H323V160V157H320H317V160ZM145 160V161H146H147V160V159H146H145V160ZM151 160V161H152H153V160V159H152H151V160ZM177 160V161H176H175V160V159H176H177V160ZM193 160V161H194H195V160V159H194H193V160ZM205 160V161H206H207V160V159H206H205V160ZM211 160V161H212H213V160V159H212H211V160ZM217 160V161H218H219V160V159H218H217V160ZM223 160V161H224H225V160V159H224H223V160ZM261 160V161H260H259V160V159H260H261V160ZM283 160V161H284H285V160V159H284H283V160ZM99 166V167H98H97V166V165H98H99V166ZM105 166V167H104H103V166V165H104H105V166ZM111 166V167H110H109V166V165H110H111V166ZM133 166V167H134H135V166V165H134H133V166ZM139 166V167H140H141V166V165H140H139V166ZM145 166V167H146H147V166V165H146H145V166ZM151 166V167H152H153V166V165H152H151V166ZM165 166V167H164H163V166V165H164H165V166ZM177 166V167H176H175V166V165H176H177V166ZM183 166V167H182H181V166V165H182H183V166ZM217 166V167H218H219V166V165H218H217V166ZM237 166V167H236H235V166V165H236H237V166ZM243 166V167H242H241V166V165H242H243V166ZM265 166V167H266H267V166V165H266H265V166ZM271 166V167H272H273V166V165H272H271V166ZM295 166V167H296H297V166V165H296H295V166ZM301 166V167H302H303V166V165H302H301V166ZM325 166V167H326H327V166V165H326H325V166ZM331 166V167H332H333V166V165H332H331V166ZM125 172V175H128H131V172V169H128H125V172ZM99 172V173H98H97V172V171H98H99V172ZM105 172V173H104H103V172V171H104H105V172ZM111 172V173H110H109V172V171H110H111V172ZM117 172V173H116H115V172V171H116H117V172ZM171 172V173H170H169V172V171H170H171V172ZM177 172V173H176H175V172V171H176H177V172ZM183 172V173H182H181V172V171H182H183V172ZM189 172V173H188H187V172V171H188H189V172ZM199 172V173H200H201V172V171H200H199V172ZM225 172V173H224H223V172V171H224H225V172ZM249 172V173H248H247V172V171H248H249V172ZM277 172V173H278H279V172V171H278H277V172ZM283 172V173H284H285V172V171H284H283V172ZM289 172V173H290H291V172V171H290H289V172ZM301 172V173H302H303V172V171H302H301V172ZM319 172V173H320H321V172V171H320H319V172ZM331 172V173H332H333V172V171H332H331V172ZM117 178V179H116H115V178V177H116H117V178ZM145 178V179H146H147V178V177H146H145V178ZM171 178V179H170H169V178V177H170H171V178ZM177 178V179H176H175V178V177H176H177V178ZM219 178V179H218H217V178V177H218H219V178ZM225 178V179H224H223V178V177H224H225V178ZM231 178V179H230H229V178V177H230H231V178ZM253 178V179H254H255V178V177H254H253V178ZM259 178V179H260H261V178V177H260H259V178ZM265 178V179H266H267V178V177H266H265V178ZM283 178V179H284H285V178V177H284H283V178ZM289 178V179H290H291V178V177H290H289V178ZM301 178V179H302H303V178V177H302H301V178ZM313 178V179H314H315V178V177H314H313V178ZM319 178V179H320H321V178V177H320H319V178ZM99 184V185H98H97V184V183H98H99V184ZM111 184V185H110H109V184V183H110H111V184ZM117 184V185H116H115V184V183H116H117V184ZM157 184V185H158H159V184V183H158H157V184ZM163 184V185H164H165V184V183H164H163V184ZM193 184V185H194H195V184V183H194H193V184ZM199 184V185H200H201V184V183H200H199V184ZM213 184V185H212H211V184V183H212H213V184ZM225 184V185H224H223V184V183H224H225V184ZM231 184V185H230H229V184V183H230H231V184ZM237 184V185H236H235V184V183H236H237V184ZM243 184V185H242H241V184V183H242H243V184ZM265 184V185H266H267V184V183H266H265V184ZM295 184V185H296H297V184V183H296H295V184ZM319 184V185H320H321V184V183H320H319V184ZM139 190V191H140H141V190V189H140H139V190ZM163 190V191H164H165V190V189H164H163V190ZM175 190V191H176H177V190V189H176H175V190ZM187 190V191H188H189V190V189H188H187V190ZM193 190V191H194H195V190V189H194H193V190ZM207 190V191H206H205V190V189H206H207V190ZM225 190V191H224H223V190V189H224H225V190ZM231 190V191H230H229V190V189H230H231V190ZM253 190V191H254H255V190V189H254H253V190ZM259 190V191H260H261V190V189H260H259V190ZM265 190V191H266H267V190V189H266H265V190ZM271 190V191H272H273V190V189H272H271V190ZM283 190V191H284H285V190V189H284H283V190ZM295 190V191H296H297V190V189H296H295V190ZM325 190V191H326H327V190V189H326H325V190ZM331 190V191H332H333V190V189H332H331V190ZM99 196V197H98H97V196V195H98H99V196ZM111 196V197H110H109V196V195H110H111V196ZM123 196V197H122H121V196V195H122H123V196ZM145 196V197H146H147V196V195H146H145V196ZM151 196V197H152H153V196V195H152H151V196ZM157 196V197H158H159V196V195H158H157V196ZM169 196V197H170H171V196V195H170H169V196ZM187 196V197H188H189V196V195H188H187V196ZM213 196V197H212H211V196V195H212H213V196ZM219 196V197H218H217V196V195H218H219V196ZM247 196V197H248H249V196V195H248H247V196ZM253 196V197H254H255V196V195H254H253V196ZM271 196V197H272H273V196V195H272H271V196ZM295 196V197H296H297V196V195H296H295V196ZM313 196V197H314H315V196V195H314H313V196ZM319 196V197H320H321V196V195H320H319V196ZM131 202V205H128H125V202V199H128H131V202ZM105 202V203H104H103V202V201H104H105V202ZM111 202V203H110H109V202V201H110H111V202ZM123 202V203H122H121V202V201H122H123V202ZM135 202V203H134H133V202V201H134H135V202ZM141 202V203H140H139V202V201H140H141V202ZM175 202V203H176H177V202V201H176H175V202ZM187 202V203H188H189V202V201H188H187V202ZM225 202V203H224H223V202V201H224H225V202ZM271 202V203H272H273V202V201H272H271V202ZM277 202V203H278H279V202V201H278H277V202ZM283 202V203H284H285V202V201H284H283V202ZM295 202V203H296H297V202V201H296H295V202ZM301 202V203H302H303V202V201H302H301V202ZM307 202V203H308H309V202V201H308H307V202ZM313 202V203H314H315V202V201H314H313V202ZM319 202V203H320H321V202V201H320H319V202ZM91 208V209H92H93V208V207H92H91V208ZM111 208V209H110H109V208V207H110H111V208ZM153 208V209H152H151V208V207H152H153V208ZM169 208V209H170H171V208V207H170H169V208ZM175 208V209H176H177V208V207H176H175V208ZM181 208V209H182H183V208V207H182H181V208ZM225 208V209H224H223V208V207H224H225V208ZM243 208V209H247H251V210V211H256H261V212V213H263.779H266.558L268 215L269.442 217H270.786H272.13L277.157 222.161L282.183 227.321L283.037 225.94L283.891 224.558L284.667 225.333L285.442 226.109L284.003 226.998L282.564 227.887L284.782 229.811L287 231.735V233.367V235H288H289V237V239H290H291V240.917V242.833L289.75 243.28L288.5 243.726L289.387 244.613L290.274 245.5L290.72 244.25L291.167 243H292.083H293V245V247H294H295V249.917V252.833L296.25 253.341L297.5 253.848L296.032 254.868L294.564 255.887L296.782 257.811L299 259.735V264.367V269H300H301V273.917V278.833L302.25 279.417L303.5 280L302.25 280.583L301 281.167V289V296.833L302.241 297.247L303.482 297.661L301.813 299.33L300.143 301H290.571H281V316V331H284.571H288.143L289.69 332.548L291.238 334.095L290.565 334.769L289.891 335.442L288.946 333.971L288 332.5L287 334L286 335.5L285.054 334.029L284.109 332.558L283.333 333.333L282.558 334.109L284.029 335.054L285.5 336L284 337L282.5 338L283.971 338.946L285.442 339.891L284.667 340.667L283.891 341.442L282.869 339.971L281.848 338.5L281.341 339.75L280.833 341H279.318H277.802L275 344L272.198 347H267.599H263V348V349H252H241V348.083V347.167L242.25 346.72L243.5 346.274L242.613 345.387L241.726 344.5L241.28 345.75L240.833 347H238.917H237V346V345H234H231V346V347H230H229V344V341H230.779H232.558L234 339L235.442 337H236.799H238.157L242 333L245.843 329H247.422H249V327V325H250H251V323.221V321.442L253 320L255 318.558V316.779V315H256H257V312V309H257.917H258.833L259.28 310.25L259.726 311.5L260.613 310.613L261.5 309.726L260.25 309.28L259 308.833V305.917V303H260H261V295.083V287.167L259.75 286.583L258.5 286L259.75 285.417L261 284.833V278V271.167L259.75 270.659L258.5 270.152L259.968 269.132L261.436 268.113L259.218 266.189L257 264.265V262.633V261H256.083H255.167L254.72 262.25L254.274 263.5L253.387 262.613L252.5 261.726L253.75 261.28L255 260.833V258.395V255.957L249.522 250.478L244.043 245H242.522H241V243.467V241.933L237.533 238.467L234.067 235H232.533H231V234V233H229H227V232V231H225H223V230V229H221H219V227V225H220H221V223.467V221.933L224.467 218.467L227.933 215H229.246H230.558L232 213L233.442 211H238.221H243V210V209H242H241V208V207H242H243V208ZM255 208V209H254H253V208V207H254H255V208ZM301 208V209H302H303V208V207H302H301V208ZM313 208V209H314H315V208V207H314H313V208ZM331 208V209H332H333V208V207H332H331V208ZM131 214V217H128H125V214V211H128H131V214ZM135 214V215H134H133V214V213H134H135V214ZM153 214V215H152H151V214V213H152H153V214ZM159 214V215H158H157V214V213H158H159V214ZM165 214V215H164H163V214V213H164H165V214ZM201 214V215H200H199V214V213H200H201V214ZM207 214V215H206H205V214V213H206H207V214ZM213 214V215H212H211V214V213H212H213V214ZM219 214V215H218H217V214V213H218H219V214ZM225 214V215H224H223V214V213H224H225V214ZM241 214V215H242H243V214V213H242H241V214ZM253 214V215H254H255V214V213H254H253V214ZM279 214V215H278H277V214V213H278H279V214ZM307 214V215H308H309V214V213H308H307V214ZM313 214V215H314H315V214V213H314H313V214ZM319 214V215H320H321V214V213H320H319V214ZM325 214V215H326H327V214V213H326H325V214ZM91 220V221H92H93V220V219H92H91V220ZM117 220V221H116H115V220V219H116H117V220ZM123 220V221H122H121V220V219H122H123V220ZM135 220V221H134H133V220V219H134H135V220ZM147 220V221H146H145V220V219H146H147V220ZM153 220V221H152H151V220V219H152H153V220ZM159 220V221H158H157V220V219H158H159V220ZM165 220V221H164H163V220V219H164H165V220ZM183 220V221H182H181V220V219H182H183V220ZM189 220V221H188H187V220V219H188H189V220ZM195 220V221H194H193V220V219H194H195V220ZM207 220V221H206H205V220V219H206H207V220ZM229 220V221H230H231V220V219H230H229V220ZM241 220V221H242H243V220V219H242H241V220ZM247 220V221H248H249V220V219H248H247V220ZM265 220V221H266H267V220V219H266H265V220ZM271 220V221H272H273V220V219H272H271V220ZM285 220V221H284H283V220V219H284H285V220ZM297 220V221H296H295V220V219H296H297V220ZM303 220V221H302H301V220V219H302H303V220ZM319 220V221H320H321V220V219H320H319V220ZM331 220V221H332H333V220V219H332H331V220ZM131 226V229H128H125V226V223H128H131V226ZM103 226V227H104H105V226V225H104H103V226ZM153 226V227H152H151V226V225H152H153V226ZM177 226V227H176H175V226V225H176H177V226ZM183 226V227H182H181V226V225H182H183V226ZM189 226V227H188H187V226V225H188H189V226ZM201 226V227H200H199V226V225H200H201V226ZM207 226V227H206H205V226V225H206H207V226ZM229 226V227H230H231V226V225H230H229V226ZM291 226V227H290H289V226V225H290H291V226ZM297 226V227H296H295V226V225H296H297V226ZM319 226V227H320H321V226V225H320H319V226ZM91 232V233H92H93V232V231H92H91V232ZM135 232V233H134H133V232V231H134H135V232ZM141 232V233H140H139V232V231H140H141V232ZM153 232V233H152H151V232V231H152H153V232ZM159 232V233H158H157V232V231H158H159V232ZM165 232V233H164H163V232V231H164H165V232ZM171 232V233H170H169V232V231H170H171V232ZM213 232V233H212H211V232V231H212H213V232ZM219 232V233H218H217V232V231H218H219V232ZM265 232V233H266H267V232V231H266H265V232ZM271 232V233H272H273V232V231H272H271V232ZM283 232V233H284H285V232V231H284H283V232ZM303 232V233H302H301V232V231H302H303V232ZM309 232V233H308H307V232V231H308H309V232ZM315 232V233H314H313V232V231H314H315V232ZM331 232V233H332H333V232V231H332H331V232ZM91 238V239H92H93V238V237H92H91V238ZM103 238V239H104H105V238V237H104H103V238ZM115 238V239H116H117V238V237H116H115V238ZM141 238V239H140H139V238V237H140H141V238ZM165 238V239H164H163V238V237H164H165V238ZM171 238V239H170H169V238V237H170H171V238ZM177 238V239H176H175V238V237H176H177V238ZM183 238V239H182H181V238V237H182H183V238ZM189 238V239H188H187V238V237H188H189V238ZM207 238V239H206H205V238V237H206H207V238ZM219 238V239H218H217V238V237H218H219V238ZM231 238V239H230H229V238V237H230H231V238ZM241 238V239H242H243V238V237H242H241V238ZM265 238V239H266H267V238V237H266H265V238ZM297 238V239H296H295V238V237H296H297V238ZM303 238V239H302H301V238V237H302H303V238ZM125 244V247H128H131V244V241H128H125V244ZM91 244V245H92H93V244V243H92H91V244ZM109 244V245H110H111V244V243H110H109V244ZM121 244V245H122H123V244V243H122H121V244ZM159 244V245H158H157V244V243H158H159V244ZM165 244V245H164H163V244V243H164H165V244ZM189 244V245H188H187V244V243H188H189V244ZM195 244V245H194H193V244V243H194H195V244ZM201 244V245H200H199V244V243H200H201V244ZM219 244V245H218H217V244V243H218H219V244ZM231 244V245H230H229V244V243H230H231V244ZM237 244V245H236H235V244V243H236H237V244ZM253 244V245H254H255V244V243H254H253V244ZM271 244V245H272H273V244V243H272H271V244ZM283 244V245H284H285V244V243H284H283V244ZM297 244V245H296H295V244V243H296H297V244ZM303 244V245H302H301V244V243H302H303V244ZM309 244V245H308H307V244V243H308H309V244ZM315 244V245H314H313V244V243H314H315V244ZM321 244V245H320H319V244V243H320H321V244ZM331 244V245H332H333V244V243H332H331V244ZM91 250V251H92H93V250V249H92H91V250ZM103 250V251H104H105V250V249H104H103V250ZM109 250V251H110H111V250V249H110H109V250ZM121 250V251H122H123V250V249H122H121V250ZM145 250V251H146H147V250V249H146H145V250ZM151 250V251H152H153V250V249H152H151V250ZM177 250V251H176H175V250V249H176H177V250ZM183 250V251H182H181V250V249H182H183V250ZM195 250V251H194H193V250V249H194H195V250ZM201 250V251H200H199V250V249H200H201V250ZM219 250V251H218H217V250V249H218H219V250ZM225 250V251H224H223V250V249H224H225V250ZM237 250V251H236H235V250V249H236H237V250ZM243 250V251H242H241V250V249H242H243V250ZM265 250V251H266H267V250V249H266H265V250ZM277 250V251H278H279V250V249H278H277V250ZM125 256V259H128H131V256V253H128H125V256ZM91 256V257H92H93V256V255H92H91V256ZM115 256V257H116H117V256V255H116H115V256ZM121 256V257H122H123V256V255H122H121V256ZM139 256V257H140H141V256V255H140H139V256ZM163 256V257H164H165V256V255H164H163V256ZM177 256V257H176H175V256V255H176H177V256ZM183 256V257H182H181V256V255H182H183V256ZM195 256V257H194H193V256V255H194H195V256ZM207 256V257H206H205V256V255H206H207V256ZM213 256V257H212H211V256V255H212H213V256ZM219 256V257H218H217V256V255H218H219V256ZM225 256V257H224H223V256V255H224H225V256ZM237 256V257H236H235V256V255H236H237V256ZM249 256V257H248H247V256V255H248H249V256ZM271 256V257H272H273V256V255H272H271V256ZM289 256V257H290H291V256V255H290H289V256ZM303 256V257H302H301V256V255H302H303V256ZM309 256V257H308H307V256V255H308H309V256ZM315 256V257H314H313V256V255H314H315V256ZM321 256V257H320H319V256V255H320H321V256ZM327 256V257H326H325V256V255H326H327V256ZM91 262V263H92H93V262V261H92H91V262ZM103 262V263H104H105V262V261H104H103V262ZM109 262V263H110H111V262V261H110H109V262ZM115 262V263H116H117V262V261H116H115V262ZM133 262V263H134H135V262V261H134H133V262ZM139 262V263H140H141V262V261H140H139V262ZM151 262V263H152H153V262V261H152H151V262ZM157 262V263H158H159V262V261H158H157V262ZM177 262V263H176H175V262V261H176H177V262ZM219 262V263H218H217V262V261H218H219V262ZM225 262V263H224H223V262V261H224H225V262ZM231 262V263H230H229V262V261H230H231V262ZM243 262V263H242H241V262V261H242H243V262ZM249 262V263H248H247V262V261H248H249V262ZM259 262V263H260H261V262V261H260H259V262ZM271 262V263H272H273V262V261H272H271V262ZM283 262V263H284H285V262V261H284H283V262ZM295 262V263H296H297V262V261H296H295V262ZM309 262V263H308H307V262V261H308H309V262ZM315 262V263H314H313V262V261H314H315V262ZM327 262V263H326H325V262V261H326H327V262ZM125 268V271H128H131V268V265H128H125V268ZM208.267 267.25L210.269 269.5L210.718 268.25L211.167 267H212.083H213V268.578V270.157L217 274L221 277.843V279.422V281H221.917H222.833L223.28 279.75L223.726 278.5L224.584 279.304L225.442 280.109L223.971 281.054L222.5 282L224 283.076L225.5 284.152L224.25 284.659L223 285.167V286.083V287H225H227V302V317H226.083H225.167L224.72 315.75L224.274 314.5L223.387 315.387L222.5 316.274L223.75 316.72L225 317.167V319.863V322.558L223 324L221 325.442V326.853V328.265L218.782 330.189L216.564 332.113L218.003 333.002L219.442 333.891L218.782 334.552L218.121 335.212L215.561 332.652L213 330.091V328.545V327H212H211V325V323H210H209V321.367V319.735L206.782 317.811L204.564 315.887L206.032 314.944L207.5 314L206 313L204.5 312L206 310.924L207.5 309.848L206.25 309.341L205 308.833V306.917V305H204H203V286.458V267.916L204.25 266.496L205.5 265.076L205.883 265.038L206.265 265L208.267 267.25ZM97 268V269H98H99V268V267H98H97V268ZM103 268V269H104H105V268V267H104H103V268ZM109 268V269H110H111V268V267H110H109V268ZM115 268V269H116H117V268V267H116H115V268ZM121 268V269H122H123V268V267H122H121V268ZM133 268V269H134H135V268V267H134H133V268ZM145 268V269H146H147V268V267H146H145V268ZM157 268V269H158H159V268V267H158H157V268ZM163 268V269H164H165V268V267H164H163V268ZM183 268V269H182H181V268V267H182H183V268ZM225 268V269H224H223V268V267H224H225V268ZM237 268V269H236H235V268V267H236H237V268ZM255 268V269H254H253V268V267H254H255V268ZM265 268V269H266H267V268V267H266H265V268ZM271 268V269H272H273V268V267H272H271V268ZM277 268V269H278H279V268V267H278H277V268ZM283 268V269H284H285V268V267H284H283V268ZM295 268V269H296H297V268V267H296H295V268ZM309 268V269H308H307V268V267H308H309V268ZM315 268V269H314H313V268V267H314H315V268ZM97 274V275H98H99V274V273H98H97V274ZM109 274V275H110H111V274V273H110H109V274ZM139 274V275H140H141V274V273H140H139V274ZM157 274V275H158H159V274V273H158H157V274ZM163 274V275H164H165V274V273H164H163V274ZM177 274V275H176H175V274V273H176H177V274ZM189 274V275H188H187V274V273H188H189V274ZM211 274V275H212H213V274V273H212H211V274ZM225 274V275H224H223V274V273H224H225V274ZM237 274V275H236H235V274V273H236H237V274ZM243 274V275H242H241V274V273H242H243V274ZM249 274V275H248H247V274V273H248H249V274ZM265 274V275H266H267V274V273H266H265V274ZM271 274V275H272H273V274V273H272H271V274ZM283 274V275H284H285V274V273H284H283V274ZM289 274V275H290H291V274V273H290H289V274ZM309 274V275H308H307V274V273H308H309V274ZM327 274V275H326H325V274V273H326H327V274ZM125 280V283H128H131V280V277H128H125V280ZM91 280V281H92H93V280V279H92H91V280ZM97 280V281H98H99V280V279H98H97V280ZM103 280V281H104H105V280V279H104H103V280ZM133 280V281H134H135V280V279H134H133V280ZM145 280V281H146H147V280V279H146H145V280ZM177 280V281H176H175V280V279H176H177V280ZM183 280V281H182H181V280V279H182H183V280ZM205 280V281H206H207V280V279H206H205V280ZM231 280V281H230H229V280V279H230H231V280ZM237 280V281H236H235V280V279H236H237V280ZM255 280V281H254H253V280V279H254H255V280ZM265 280V281H266H267V280V279H266H265V280ZM271 280V281H272H273V280V279H272H271V280ZM277 280V281H278H279V280V279H278H277V280ZM97 286V287H98H99V286V285H98H97V286ZM109 286V287H110H111V286V285H110H109V286ZM133 286V287H134H135V286V285H134H133V286ZM139 286V287H140H141V286V285H140H139V286ZM151 286V287H152H153V286V285H152H151V286ZM177 286V287H176H175V286V285H176H177V286ZM189 286V287H188H187V286V285H188H189V286ZM195 286V287H194H193V286V285H194H195V286ZM217 286V287H218H219V286V285H218H217V286ZM249 286V287H248H247V286V285H248H249V286ZM271 286V287H272H273V286V285H272H271V286ZM289 286V287H290H291V286V285H290H289V286ZM309 286V287H308H307V286V285H308H309V286ZM315 286V287H314H313V286V285H314H315V286ZM89 297V307H96H103V306.429V305.857L101.409 304.266L99.818 302.676L98.964 304.059L98.109 305.442L97.304 304.584L96.5 303.726L97.75 303.28L99 302.833V300.917V299H98H97V297V295H96H95V292.429V289.857L93.571 288.429L92.143 287H90.571H89V297ZM125 292V295H128H131V292V289H128H125V292ZM133 292V293H134H135V292V291H134H133V292ZM139 292V293H140H141V292V291H140H139V292ZM145 292V293H146H147V292V291H146H145V292ZM201 292V293H200H199V292V291H200H201V292ZM231 292V293H230H229V292V291H230H231V292ZM243 292V293H242H241V292V291H242H243V292ZM265 292V293H266H267V292V291H266H265V292ZM295 292V293H296H297V292V291H296H295V292ZM321 292V293H320H319V292V291H320H321V292ZM327 292V293H326H325V292V291H326H327V292ZM93 298V299H92H91V298V297H92H93V298ZM103 298V299H104H105V298V297H104H103V298ZM121 298V299H122H123V298V297H122H121V298ZM133 298V299H134H135V298V297H134H133V298ZM139 298V299H140H141V298V297H140H139V298ZM163 298V299H164H165V298V297H164H163V298ZM169 298V299H170H171V298V297H170H169V298ZM183 298V299H182H181V298V297H182H183V298ZM201 298V299H200H199V298V297H200H201V298ZM205 298V299H206H207V298V297H206H205V298ZM243 298V299H242H241V298V297H242H243V298ZM249 298V299H248H247V298V297H248H249V298ZM255 298V299H254H253V298V297H254H255V298ZM265 298V299H266H267V298V297H266H265V298ZM277 298V299H278H279V298V297H278H277V298ZM289 298V299H290H291V298V297H290H289V298ZM125 304V307H128H131V304V301H128H125V304ZM93 304V305H92H91V304V303H92H93V304ZM115 304V305H116H117V304V303H116H115V304ZM133 304V305H134H135V304V303H134H133V304ZM145 304V305H146H147V304V303H146H145V304ZM157 304V305H158H159V304V303H158H157V304ZM163 304V305H164H165V304V303H164H163V304ZM169 304V305H170H171V304V303H170H169V304ZM189 304V305H188H187V304V303H188H189V304ZM195 304V305H194H193V304V303H194H195V304ZM201 304V305H200H199V304V303H200H201V304ZM211 304V305H212H213V304V303H212H211V304ZM217 304V305H218H219V304V303H218H217V304ZM243 304V305H242H241V304V303H242H243V304ZM249 304V305H248H247V304V303H248H249V304ZM321 304V305H320H319V304V303H320H321V304ZM331 304V305H332H333V304V303H332H331V304ZM137 310V313H140H143V310V307H140H137V310ZM305 316V325H296H287V316V307H296H305V316ZM145 310V311H146H147V310V309H146H145V310ZM183 310V311H182H181V310V309H182H183V310ZM189 310V311H188H187V310V309H188H189V310ZM195 310V311H194H193V310V309H194H195V310ZM201 310V311H200H199V310V309H200H201V310ZM211 310V311H212H213V310V309H212H211V310ZM231 310V311H230H229V310V309H230H231V310ZM237 310V311H236H235V310V309H236H237V310ZM243 310V311H242H241V310V309H242H243V310ZM265 310V311H266H267V310V309H266H265V310ZM277 310V311H278H279V310V309H278H277V310ZM321 310V311H320H319V310V309H320H321V310ZM89 334V355H110H131V334V313H110H89V334ZM293 316V319H296H299V316V313H296H293V316ZM151 316V317H152H153V316V315H152H151V316ZM163 316V317H164H165V316V315H164H163V316ZM175 316V317H176H177V316V315H176H175V316ZM201 316V317H200H199V316V315H200H201V316ZM211 316V317H212H213V316V315H212H211V316ZM217 316V317H218H219V316V315H218H217V316ZM231 316V317H230H229V316V315H230H231V316ZM243 316V317H242H241V316V315H242H243V316ZM249 316V317H248H247V316V315H248H249V316ZM277 316V317H278H279V316V315H278H277V316ZM315 316V317H314H313V316V315H314H315V316ZM321 316V317H320H319V316V315H320H321V316ZM331 316V317H332H333V316V315H332H331V316ZM125 334V349H110H95V334V319H110H125V334ZM195 322V323H194H193V322V321H194H195V322ZM201 322V323H200H199V322V321H200H201V322ZM231 322V323H230H229V322V321H230H231V322ZM253 322V323H254H255V322V321H254H253V322ZM265 322V323H266H267V322V321H266H265V322ZM277 322V323H278H279V322V321H278H277V322ZM315 322V323H314H313V322V321H314H315V322ZM325 322V323H326H327V322V321H326H325V322ZM331 322V323H332H333V322V321H332H331V322ZM101 334V343H110H119V334V325H110H101V334ZM145 328V329H146H147V328V327H146H145V328ZM157 328V329H158H159V328V327H158H157V328ZM181 328V329H182H183V328V327H182H181V328ZM207 328V329H206H205V328V327H206H207V328ZM217 328V329H218H219V328V327H218H217V328ZM225 328V329H224H223V328V327H224H225V328ZM243 328V329H242H241V328V327H242H243V328ZM271 328V329H272H273V328V327H272H271V328ZM319 328V329H320H321V328V327H320H319V328ZM331 328V329H332H333V328V327H332H331V328ZM137 334V337H140H143V334V331H140H137V334ZM145 334V335H146H147V334V333H146H145V334ZM163 334V335H164H165V334V333H164H163V334ZM175 334V335H176H177V334V333H176H175V334ZM193 334V335H194H195V334V333H194H193V334ZM225 334V335H224H223V334V333H224H225V334ZM231 334V335H230H229V334V333H230H231V334ZM237 334V335H236H235V334V333H236H237V334ZM259 334V335H260H261V334V333H260H259V334ZM265 334V335H266H267V334V333H266H265V334ZM271 334V335H272H273V334V333H272H271V334ZM297 334V335H296H295V334V333H296H297V334ZM303 334V335H302H301V334V333H302H303V334ZM313 334V335H314H315V334V333H314H313V334ZM319 334V335H320H321V334V333H320H319V334ZM325 334V335H326H327V334V333H326H325V334ZM331 334V335H332H333V334V333H332H331V334ZM145 340V341H146H147V340V339H146H145V340ZM151 340V341H152H153V340V339H152H151V340ZM175 340V341H176H177V340V339H176H175V340ZM199 340V341H200H201V340V339H200H199V340ZM225 340V341H224H223V340V339H224H225V340ZM235 340V341H236H237V340V339H236H235V340ZM247 340V341H248H249V340V339H248H247V340ZM271 340V341H272H273V340V339H272H271V340ZM297 340V341H296H295V340V339H296H297V340ZM307 340V341H308H309V340V339H308H307V340ZM319 340V341H320H321V340V339H320H319V340ZM331 340V341H332H333V340V339H332H331V340ZM169 346V347H170H171V346V345H170H169V346ZM175 346V347H176H177V346V345H176H175V346ZM181 346V347H182H183V346V345H182H181V346ZM187 346V347H188H189V346V345H188H187V346ZM207 346V347H206H205V346V345H206H207V346ZM247 346V347H248H249V346V345H248H247V346ZM253 346V347H254H255V346V345H254H253V346ZM259 346V347H260H261V346V345H260H259V346ZM279 346V347H278H277V346V345H278H279V346ZM301 346V347H302H303V346V345H302H301V346ZM325 346V347H326H327V346V345H326H325V346ZM331 346V347H332H333V346V345H332H331V346ZM159 352V353H158H157V352V351H158H159V352ZM189 352V353H188H187V352V351H188H189V352ZM217 352V353H218H219V352V351H218H217V352ZM283 352V353H284H285V352V351H284H283V352ZM289 352V353H290H291V352V351H290H289V352ZM295 352V353H296H297V352V351H296H295V352ZM301 352V353H302H303V352V351H302H301V352ZM319 352V353H320H321V352V351H320H319V352ZM331 352V353H332H333V352V351H332H331V352Z" fill="black"/>
</svg>
